<?xml version="1.0" encoding="utf-8"?>
<!-- Generator: Adobe Illustrator 27.0.0, SVG Export Plug-In . SVG Version: 6.00 Build 0)  -->
<!DOCTYPE svg PUBLIC "-//W3C//DTD SVG 1.1//EN" "http://www.w3.org/Graphics/SVG/1.1/DTD/svg11.dtd" [
	<!ENTITY ns_extend "http://ns.adobe.com/Extensibility/1.0/">
	<!ENTITY ns_ai "http://ns.adobe.com/AdobeIllustrator/10.0/">
	<!ENTITY ns_graphs "http://ns.adobe.com/Graphs/1.0/">
	<!ENTITY ns_vars "http://ns.adobe.com/Variables/1.0/">
	<!ENTITY ns_imrep "http://ns.adobe.com/ImageReplacement/1.0/">
	<!ENTITY ns_sfw "http://ns.adobe.com/SaveForWeb/1.0/">
	<!ENTITY ns_custom "http://ns.adobe.com/GenericCustomNamespace/1.0/">
	<!ENTITY ns_adobe_xpath "http://ns.adobe.com/XPath/1.0/">
]>
<svg version="1.1" xmlns:x="&ns_extend;" xmlns:i="&ns_ai;" xmlns:graph="&ns_graphs;"
	 xmlns="http://www.w3.org/2000/svg" xmlns:xlink="http://www.w3.org/1999/xlink" x="0px" y="0px" width="1000px" height="550px"
	 viewBox="0 0 1000 550" enable-background="new 0 0 1000 550" xml:space="preserve">
<metadata>
	<sfw  xmlns="&ns_sfw;">
		<slices></slices>
		<sliceSourceBounds  bottomLeftOrigin="true" height="9868.596" width="8595" x="-2000" y="-2154.712"></sliceSourceBounds>
	</sfw>
</metadata>
<g id="FILL-BACKGROUND">
	<rect x="0" fill="#FFFFFF" width="1000" height="550"/>
</g>
<g id="N-TEXT">
</g>
<g id="N-DIMENSIONS">
</g>
<g id="_x32_D_x24_AG-DIAGRAM">
	<g id="POLYLINE_00000168091127039618431020000005345994997107068302_">
		<g>
			<g>
				
					<line fill="none" stroke="#FB8604" stroke-width="3.25" stroke-linecap="round" stroke-linejoin="round" x1="51.163" y1="497.822" x2="53.163" y2="497.822"/>
				
					<line fill="none" stroke="#FB8604" stroke-width="3.25" stroke-linecap="round" stroke-linejoin="round" stroke-dasharray="3.9776,6.9607" x1="60.124" y1="497.822" x2="877.017" y2="497.822"/>
				
					<line fill="none" stroke="#FB8604" stroke-width="3.25" stroke-linecap="round" stroke-linejoin="round" x1="880.497" y1="497.822" x2="882.497" y2="497.822"/>
			</g>
		</g>
	</g>
</g>
<g id="_x32_D_x24_AG-DETAILS-DIAGRAM">
</g>
<g id="_x32_D_x24_AG-DETAILS">
</g>
<g id="_x32_D_x24_AG-ANIMALS">
	<g id="POLYLINE_00000054987040623725647470000005423968220463174825_">
		
			<path fill="none" stroke="#FB8604" stroke-width="2.75" stroke-linecap="round" stroke-linejoin="round" stroke-miterlimit="10" d="
			M227.836,114.335c1.211,0.395,2.523,0.801,3.764,1.078c0.799,0.176,1.624,0.32,2.443,0.337c1.247,0.012,2.5-0.243,3.689-0.608
			c1.149-0.352,2.416-0.975,3.512-1.479c0.542-0.24,1.105-0.464,1.69-0.571c0.376-0.07,0.765-0.082,1.146-0.055
			c1.146,0.079,2.313,0.502,3.44,0.696c0.478,0.078,0.976,0.117,1.451,0.001c0.688-0.17,1.238-0.658,1.719-1.156
			c0.746-0.788,1.504-1.771,2.328-2.478c0.667-0.585,1.443-1.045,2.222-1.464c1.009-0.53,2.305-1.151,3.228-1.781
			c0.441-0.305,0.862-0.651,1.196-1.074c0.495-0.623,0.748-1.398,0.937-2.161c0.25-1.012,0.415-2.16,0.955-3.063
			c0.28-0.467,0.666-0.863,1.077-1.215c0.813-0.695,1.932-1.377,2.728-2.088c0.631-0.547,1.11-1.184,1.468-1.936
			c0.707-1.437,1.019-3.101,1.959-4.42c1.088-1.481,2.941-2.196,4.396-3.239c0.816-0.561,1.477-1.243,2.024-2.067
			c1.075-1.558,1.761-3.52,3.287-4.72c0.829-0.672,1.875-1.18,2.732-1.813c0.418-0.306,0.794-0.673,1.097-1.095
			c0.625-0.854,1.064-1.909,1.757-2.715c0.362-0.428,0.816-0.772,1.302-1.048c0.992-0.58,2.383-1.013,3.457-1.428
			c1.116-0.4,2.447-1.065,3.518-1.585c0.651-0.302,1.327-0.598,2.031-0.752c0.444-0.096,0.909-0.131,1.356-0.036
			c0.553,0.116,1.049,0.428,1.456,0.814c0.989,0.96,1.573,2.322,1.629,3.695c0.059,0.925-0.138,1.981,0.147,2.877
			c0.096,0.299,0.268,0.569,0.477,0.803c0.497,0.55,1.234,1.038,1.821,1.488c0.647,0.495,1.271,1.053,1.69,1.76
			c0.969,1.604,1.145,3.637,2.173,5.21c0.38,0.575,0.922,1.021,1.484,1.411c0.631,0.442,1.404,0.881,1.931,1.443
			c0.167,0.179,0.315,0.38,0.424,0.599c0.144,0.287,0.23,0.603,0.291,0.917c0.218,1.084,0.121,2.364,0.829,3.283
			c0.416,0.52,1.016,0.852,1.599,1.152c0.775,0.392,1.693,0.768,2.412,1.25c0.397,0.264,0.766,0.58,1.044,0.97
			c0.467,0.649,0.711,1.438,0.935,2.198c0.33,1.133,0.631,2.367,1.4,3.292c0.356,0.43,0.802,0.779,1.269,1.082
			c1.017,0.658,2.305,1.192,3.376,1.759c0.767,0.415,1.555,0.883,2.069,1.606c0.374,0.531,0.553,1.173,0.658,1.806
			c0.24,1.505,0.185,3.224,1.073,4.534c0.502,0.766,1.185,1.404,1.866,2.01c1.594,1.41,3.571,2.841,4.276,4.938
			c0.882,2.62,0.296,5.647,0.901,8.317c0.148,0.658,0.388,1.3,0.733,1.881c0.778,1.336,2.088,2.484,3.167,3.57
			c0.631,0.649,1.275,1.339,1.611,2.193c0.37,0.936,0.32,2.058,0.354,3.05c0.02,0.539,0.067,1.087,0.213,1.608
			c0.097,0.352,0.245,0.689,0.424,1.007c1.002,1.764,2.809,3.166,3.467,5.128c0.227,0.692,0.256,1.433,0.215,2.154
			c-0.064,1.143-0.33,2.398-0.337,3.544c-0.008,0.725,0.117,1.438,0.464,2.081c0.481,0.928,1.322,1.789,1.876,2.671
			c0.279,0.443,0.509,0.932,0.581,1.455c0.065,0.455-0.004,0.92-0.126,1.361c-0.386,1.386-1.415,2.956-2.093,4.223
			c-0.418,0.777-0.833,1.585-1.055,2.444c-0.213,0.794-0.143,1.631,0.031,2.425c0.133,0.666,0.356,1.421,0.36,2.089
			c0.008,0.388-0.052,0.779-0.19,1.142c-0.299,0.769-0.84,1.418-1.381,2.03c-1.062,1.175-2.352,2.311-3.37,3.524
			c-0.416,0.501-0.81,1.035-1.089,1.626c-0.284,0.594-0.411,1.254-0.421,1.91c-0.024,1.091,0.268,2.304,0.294,3.394
			c0.022,0.652-0.09,1.306-0.324,1.915c-0.367,0.99-1.095,2.134-1.618,3.061c-0.454,0.805-0.879,1.645-1.156,2.528
			c-0.605,1.936-0.509,4.156-0.632,6.164c-0.053,0.831-0.133,1.682-0.379,2.481c-0.239,0.823-0.754,1.522-1.336,2.138
			c-0.514,0.551-1.172,1.179-1.533,1.844c-0.215,0.382-0.343,0.809-0.396,1.243c-0.173,1.466,0.187,3.059,0.148,4.528
			c-0.012,0.479-0.063,0.966-0.219,1.421c-0.098,0.284-0.244,0.552-0.419,0.795c-0.697,0.96-1.809,1.597-2.522,2.544
			c-0.192,0.254-0.355,0.533-0.467,0.832c-0.131,0.348-0.199,0.718-0.235,1.087c-0.123,1.242,0.116,2.8,0.154,4.045
			c0.024,0.831,0.01,1.699-0.319,2.477c-0.546,1.291-1.851,2.104-2.601,3.255c-0.218,0.332-0.386,0.7-0.479,1.086
			c-0.208,0.875-0.141,1.791-0.064,2.679c0.158,1.712,0.523,3.659,0.11,5.344c-0.179,0.723-0.536,1.392-0.95,2.007
			c-0.63,0.947-1.563,1.955-2.128,2.943c-0.308,0.536-0.539,1.131-0.57,1.753c-0.028,0.504,0.055,1.01,0.175,1.498
			c0.257,1.029,0.725,2.115,1.042,3.128c0.255,0.84,0.483,1.775,0.168,2.629c-0.238,0.639-0.708,1.158-1.189,1.627
			c-1.064,1.015-2.327,1.936-3.116,3.198c-0.804,1.266-0.983,2.806-1.06,4.273c-0.078,1.535,0.017,3.53-0.124,5.058
			c-0.06,0.622-0.16,1.253-0.379,1.841c-0.178,0.48-0.458,0.918-0.792,1.304c-0.48,0.565-1.151,1.093-1.656,1.634
			c-0.398,0.423-0.735,0.924-0.866,1.496c-0.116,0.494-0.111,1.011-0.073,1.514c0.145,1.665,0.691,3.543,0.832,5.209
			c0.072,0.845,0.068,1.72-0.19,2.536c-0.388,1.213-1.308,2.158-2.224,3.002c-1.255,1.161-2.821,2.329-3.519,3.931
			c-0.376,0.865-0.516,1.816-0.594,2.75c-0.099,1.163-0.084,2.557-0.274,3.708c-0.095,0.567-0.247,1.137-0.534,1.64
			c-0.32,0.561-0.809,1.006-1.327,1.384c-0.873,0.634-1.967,1.188-2.806,1.87c-0.659,0.523-1.205,1.185-1.506,1.977
			c-0.732,1.882-0.61,4.418-0.732,6.412c-0.078,1.221-0.161,2.505-0.751,3.602c-0.589,1.112-1.693,1.944-2.493,2.892
			c-0.597,0.69-1.007,1.477-1.281,2.344c-0.626,1.914-0.812,4.128-1.466,6.033c-0.205,0.571-0.466,1.143-0.891,1.585
			c-0.736,0.778-1.862,1.043-2.707,1.668c-0.27,0.199-0.512,0.44-0.702,0.717c-0.395,0.585-0.6,1.277-0.77,1.956
			c-0.39,1.609-0.609,3.733-1.069,5.323c-0.2,0.689-0.455,1.378-0.854,1.979c-0.521,0.79-1.312,1.352-2.119,1.82
			c-0.875,0.517-1.98,1.026-2.626,1.83c-0.329,0.401-0.525,0.893-0.643,1.394c-0.256,1.102-0.239,2.431-0.302,3.562
			c-0.059,0.971-0.145,1.974-0.552,2.87c-0.205,0.45-0.514,0.848-0.87,1.188c-0.869,0.831-2.061,1.413-3.02,2.13
			c-0.47,0.354-0.917,0.766-1.208,1.283c-0.343,0.614-0.456,1.324-0.517,2.016c-0.071,0.763-0.061,1.796-0.178,2.549
			c-0.066,0.43-0.173,0.864-0.401,1.239c-0.287,0.472-0.756,0.794-1.229,1.061c-0.811,0.453-1.765,0.823-2.462,1.45
			c-0.428,0.373-0.744,0.862-0.946,1.391c-0.361,0.939-0.482,1.96-0.583,2.955c-0.139,1.383-0.174,3.106-0.562,4.438
			c-0.132,0.444-0.337,0.872-0.637,1.228c-0.733,0.903-1.943,1.278-2.741,2.106c-0.867,0.915-1.427,2.234-2.125,3.272
			c-0.719,1.112-1.627,2.103-2.653,2.939c-1.547,1.245-3.497,2.297-5.542,2.01c-1.812-0.244-3.522-1.215-5.3-1.596
			c-1.412-0.32-2.886-0.215-4.312-0.052c-1.813,0.207-3.9,0.595-5.712,0.384c-1.639-0.159-3.389-0.736-5.013-0.989
			c-1.103-0.186-2.393-0.089-3.507-0.155c-0.574-0.038-1.156-0.131-1.685-0.368c-1.361-0.626-2.227-2.04-2.499-3.478
			c-0.224-1.174,0.016-2.377,0.323-3.513l0.654-2.243c0.242-0.856,0.412-1.742,0.41-2.634c0.017-1.339-0.304-2.857-0.41-4.191
			c-0.123-1.555-0.218-3.698-0.583-5.203c-0.391-1.734-1.026-3.427-1.784-5.033"/>
	</g>
	<g id="POLYLINE_00000127743034101064216680000011328202809002028961_">
		
			<path fill="none" stroke="#FB8604" stroke-width="2.75" stroke-linecap="round" stroke-linejoin="round" stroke-miterlimit="10" d="
			M231.449,485.985c9.076,0.385,18.361-0.46,27.361-1.635"/>
	</g>
	<g id="POLYLINE_00000126323854420534948020000001332083289071464847_">
		
			<path fill="none" stroke="#FB8604" stroke-width="2.75" stroke-linecap="round" stroke-linejoin="round" stroke-miterlimit="10" d="
			M231.555,378.371c0.137,14.671,1.407,37.312,1.87,52.016c0.171,7.4,0.229,15.139-0.516,22.497
			c-0.302,2.903-0.752,5.845-1.477,8.674c-0.608,2.395-1.439,4.777-2.397,7.055c-0.945,2.315-2.487,5.162-2.676,7.672
			c-0.096,1.096,0.089,2.214,0.551,3.213c0.278,0.614,0.673,1.173,1.123,1.672c0.544,0.616,1.252,1.198,1.795,1.816
			c0.573,0.642,1.027,1.389,1.343,2.189c0.42,1.048,0.612,2.18,0.758,3.295c0.306,2.19,0.354,5.04,0.851,7.195
			c0.191,0.73,0.503,1.527,1.205,1.9c0.393,0.21,0.85,0.249,1.288,0.255l21.952,0.002l0.181,0c0.211-0.003,0.439-0.005,0.647-0.028
			c0.356-0.035,0.715-0.12,1.027-0.301c0.376-0.214,0.658-0.565,0.842-0.952c0.219-0.461,0.339-0.966,0.428-1.467
			c0.158-0.929,0.197-1.887,0.182-2.828c-0.032-1.66-0.253-3.327-0.683-4.931c-0.437-1.651-1.112-3.246-1.897-4.761
			c-1.003-1.909-2.398-4.395-3.18-6.37c-0.721-1.775-1.264-3.655-1.664-5.529c-0.477-2.244-0.767-4.591-0.951-6.877
			c-0.498-6.169-0.517-15.47-0.631-21.739c-0.003-6.604-0.08-14.405,0.373-20.974c1.008-13.375,3.499-28.191,5.562-41.478"/>
	</g>
	<g id="POLYLINE_00000083783557280167465920000013952777518290656940_">
		
			<path fill="none" stroke="#FB8604" stroke-width="2.75" stroke-linecap="round" stroke-linejoin="round" stroke-miterlimit="10" d="
			M382.556,131.208c2.579,1.049,7.353,2.925,9.811,4.098c2.406,1.135,7.863,3.844,10.266,4.775c1.355,0.537,2.76,1.05,4.191,1.337
			c0.947,0.186,1.941,0.268,2.889,0.041c0.51-0.121,0.997-0.338,1.427-0.638c0.617-0.428,1.115-1.012,1.529-1.634
			c0.773-1.171,1.319-2.49,1.798-3.804c0.631-1.769,1.175-3.692,1.659-5.507c0.302-1.188,0.551-2.416,0.561-3.645
			c0.036-1.773-0.512-3.468-1.293-5.041c-1.046-2.107-2.433-4.056-3.925-5.869c-1.396-1.726-3.856-4.15-5.353-5.806
			c-2.223-2.452-5.316-6.155-7.581-8.546c-1.953-2.096-4.139-4.209-6.286-6.108c-3.175-2.819-6.865-5.751-10.229-8.348
			c-1.971-1.499-8.724-6.56-10.56-8.141c-2.254-1.887-4.365-4.017-5.955-6.504c-1.106-1.684-2.549-4.15-3.857-5.646
			c-0.836-0.989-1.803-1.881-2.864-2.625c-2.307-1.619-4.979-2.666-7.692-3.383c-4.79-1.246-9.816-1.489-14.742-1.224"/>
	</g>
	<g id="POLYLINE_00000169535253579088312720000016529196937400772780_">
		
			<path fill="none" stroke="#FB8604" stroke-width="2.75" stroke-linecap="round" stroke-linejoin="round" stroke-miterlimit="10" d="
			M311.851,63.771c-2.453,0.836-4.904,1.829-7.205,3.02c-2.513,1.285-5.016,2.931-7.359,4.508"/>
	</g>
	<g id="POLYLINE_00000034781182095928786320000000869348277605491091_">
		
			<path fill="none" stroke="#FB8604" stroke-width="2.75" stroke-linecap="round" stroke-linejoin="round" stroke-miterlimit="10" d="
			M311.096,84.052c-1.827-1.452-3.531-3.304-4.1-5.626c-0.264-1.106-0.228-2.265-0.052-3.381c0.28-1.743,0.891-3.439,1.536-5.077
			c0.726-1.841,1.579-3.666,2.71-5.294c1.079-1.57,2.395-2.978,3.829-4.228c2.079-1.805,4.426-3.362,6.801-4.749
			c2.49-1.43,5.121-2.737,7.841-3.668c1.31-0.437,2.672-0.816,4.055-0.907c0.692-0.038,1.412-0.009,2.06,0.258l0.043,0.018
			l0.042,0.019l0.041,0.02c0.433,0.207,0.79,0.559,1.017,0.981c0.322,0.593,0.423,1.28,0.434,1.947
			c0.009,0.982-0.173,1.963-0.43,2.909c-0.472,1.74-1.27,3.394-2.15,4.961c-1.045,1.85-2.423,4.037-3.172,6.012
			c-0.515,1.323-0.797,2.738-1.008,4.139c-0.334,2.2-0.515,4.828-1.334,6.899c-1.011,2.567-3.206,4.403-5.388,5.973"/>
	</g>
	<g id="POLYLINE_00000026854187710677631870000005531980477368542394_">
		
			<path fill="none" stroke="#FB8604" stroke-width="2.75" stroke-linecap="round" stroke-linejoin="round" stroke-miterlimit="10" d="
			M405.532,127.109c0.356-0.859,0.822-1.701,1.522-2.328c0.809-0.734,1.895-1.102,2.971-1.187c0.554-0.039,1.124-0.003,1.651,0.179
			c0.365,0.126,0.712,0.334,0.955,0.639c0.323,0.402,0.47,0.916,0.535,1.421c0.106,0.881-0.003,1.779-0.183,2.643"/>
	</g>
	<g id="POLYLINE_00000093158363652131727530000005278945200181048254_">
		
			<path fill="none" stroke="#FB8604" stroke-width="2.75" stroke-linecap="round" stroke-linejoin="round" stroke-miterlimit="10" d="
			M342.822,153.914c5.885-1.943,12.086-3.091,18.245-3.701c7.109-0.75,14.392-0.601,21.505,0.062
			c2.975,0.247,12.325,1.383,15.146,1.366c0.598-0.012,1.203-0.072,1.781-0.231c1.436-0.391,2.605-1.395,3.624-2.438
			c1.02-1.063,1.913-2.257,2.658-3.527c0.712-1.225,1.302-2.542,1.614-3.929"/>
	</g>
	<g id="POLYLINE_00000147179297224186225270000011722660874321093778_">
		
			<path fill="none" stroke="#FB8604" stroke-width="2.75" stroke-linecap="round" stroke-linejoin="round" stroke-miterlimit="10" d="
			M108.748,334.901c1.907,1.968,4.349,3.914,7.241,3.766c1.978-0.065,3.978-0.792,5.959-0.816c1.477-0.034,2.914,0.612,4.266,1.137
			c0.696,0.265,1.418,0.507,2.162,0.587c0.748,0.081,1.511,0.001,2.253-0.104c1.068-0.153,2.26-0.392,3.337-0.323
			c0.572,0.032,1.136,0.169,1.675,0.36c1.515,0.531,2.964,1.497,4.567,1.757c0.778,0.123,1.577,0.049,2.353-0.062
			c1.179-0.172,2.468-0.458,3.658-0.321c0.753,0.086,1.477,0.351,2.172,0.643c1.327,0.556,2.769,1.354,4.247,1.265
			c1.708-0.102,3.274-1.028,4.863-1.574c0.433-0.15,0.884-0.26,1.337-0.322c0.706-0.108,1.804-0.102,2.524-0.127
			c1.271-0.04,2.548-0.263,3.787-0.541c1.753-0.399,3.526-0.934,5.216-1.544"/>
	</g>
	<g id="POLYLINE_00000116216420507131601120000001291468735342596480_">
		
			<path fill="none" stroke="#FB8604" stroke-width="2.75" stroke-linecap="round" stroke-linejoin="round" stroke-miterlimit="10" d="
			M71.819,481.398c9.436,0.861,19.283,1.326,28.751,0.995"/>
	</g>
	<g id="POLYLINE_00000023253502621680161950000010838523754131464361_">
		
			<path fill="none" stroke="#FB8604" stroke-width="2.75" stroke-linecap="round" stroke-linejoin="round" stroke-miterlimit="10" d="
			M73.086,363.573c1.209,15.03,6.084,69.337,6.884,83.361c0.074,1.645,0.116,3.427,0.067,5.072
			c-0.041,1.335-0.147,2.697-0.364,4.016c-0.362,2.292-1.146,4.514-2.101,6.622l-2.033,4.413c-0.606,1.366-1.197,2.788-1.568,4.238
			c-0.432,1.625-0.602,3.596-0.791,5.273c-0.096,0.782-0.22,1.591-0.429,2.35c-0.207,0.76-0.513,1.521-0.828,2.243
			c-0.722,1.643-1.626,3.468-2.063,5.205c-0.437,1.663-0.632,3.404-0.611,5.122c0.019,1.004,0.113,2.019,0.364,2.993
			c0.156,0.59,0.372,1.176,0.723,1.68c0.281,0.406,0.659,0.746,1.093,0.982c0.525,0.288,1.117,0.436,1.706,0.526
			c0.609,0.091,1.25,0.122,1.866,0.138c0,0,0.561,0.009,0.561,0.009l18.118,0.003c0,0,0.143-0.001,0.143-0.001
			c0.205-0.004,0.437-0.011,0.641-0.031c0.49-0.044,0.986-0.16,1.409-0.421c0.689-0.417,1.089-1.169,1.316-1.92
			c0.465-1.548,0.597-4.453,0.794-6.075c0.209-1.717,0.447-3.49,1.213-5.06c0.443-0.892,1.087-1.673,1.808-2.354
			c1.156-1.107,2.676-2.096,3.594-3.427c0.567-0.815,0.903-1.773,1.101-2.741c0.249-1.241,0.286-2.526,0.159-3.784
			c-0.119-1.182-0.402-2.361-0.966-3.413c-0.295-0.558-0.728-1.336-0.959-1.91c-0.23-0.555-0.408-1.139-0.541-1.725
			c-0.489-2.198-0.488-4.539-0.529-6.784c-0.017-4.729,0.035-11.793-0.263-16.454c-0.222-3.798-0.701-7.801-1.265-11.562
			l-3.022-18.289c-0.869-5.578-1.066-11.324-0.934-16.961c0.268-11.845,1.704-25.47,2.939-37.31"/>
	</g>
	<g id="POLYLINE_00000049222942786357603450000004628846139232352679_">
		
			<path fill="none" stroke="#FB8604" stroke-width="2.75" stroke-linecap="round" stroke-linejoin="round" stroke-miterlimit="10" d="
			M180.115,487.283c7.062-0.637,13.764-3.457,19.793-7.084"/>
	</g>
	<g id="POLYLINE_00000111905263620752521780000007449443549052054958_">
		
			<path fill="none" stroke="#FB8604" stroke-width="2.75" stroke-linecap="round" stroke-linejoin="round" stroke-miterlimit="10" d="
			M174.174,374.864c-0.841,9.755-2.633,22.901-2.335,32.551c0.089,2.444,0.379,5.046,0.728,7.471
			c1.355,9.477,5.192,26.946,6.556,36.438c0.298,2.154,0.58,4.507,0.696,6.673c0.115,2.179,0.106,4.405-0.266,6.56
			c-0.265,1.558-0.748,3.088-1.394,4.53c-0.8,1.854-2.066,3.723-2.875,5.574c-0.568,1.345-0.994,2.801-0.914,4.274
			c0.042,0.711,0.241,1.419,0.612,2.03c0.471,0.786,1.197,1.403,2.028,1.783l0.801,0.375c0.37,0.175,0.721,0.401,1.001,0.702
			c0.371,0.392,0.628,0.88,0.816,1.382c0.202,0.543,0.331,1.12,0.427,1.691c0.28,1.708,0.437,4.358,0.688,6.075
			c0.128,0.862,0.279,1.745,0.582,2.565c0.277,0.753,0.757,1.451,1.49,1.817c0.804,0.408,1.734,0.442,2.618,0.463l21.083,0.004
			c0.345-0.001,0.778,0,1.119-0.031c0.39-0.034,0.783-0.108,1.139-0.274c0.393-0.18,0.726-0.474,0.979-0.822
			c0.563-0.786,0.864-1.732,1.077-2.667c0.345-1.585,0.363-3.255-0.021-4.834c-0.211-0.857-0.537-1.699-1.042-2.429
			c-0.327-0.473-0.74-0.887-1.209-1.221c-0.726-0.52-1.567-0.868-2.402-1.174c-1.702-0.608-3.572-1.209-4.91-2.474
			c-1.313-1.249-2.086-2.955-2.64-4.654c-0.435-1.349-0.709-2.766-0.89-4.171c-1.15-9.313-2.987-21.032-3.148-30.35
			c-0.227-8.293,0.405-16.688,1.996-24.834c2.657-12.432,5.421-26.958,7.205-39.501"/>
	</g>
	<g id="POLYLINE_00000076561370188516115140000007711266265213738157_">
		
			<path fill="none" stroke="#FB8604" stroke-width="2.75" stroke-linecap="round" stroke-linejoin="round" stroke-miterlimit="10" d="
			M125.561,269.745c0.215,1.653,0.273,3.359-0.075,4.998c-0.215,0.993-0.601,1.971-1.25,2.763c-0.587,0.716-1.358,1.259-2.133,1.753
			c-1.043,0.676-2.432,1.368-3.198,2.369c-0.835,1.096-0.729,2.681-0.833,3.985c-0.051,0.723-0.146,1.454-0.401,2.136
			c-0.452,1.216-1.437,2.339-2.222,3.361c-0.543,0.715-1.106,1.464-1.347,2.342c-0.317,1.176,0.167,2.415,0.288,3.585
			c0.057,0.528,0.014,1.08-0.234,1.557c-0.359,0.723-1.048,1.373-1.591,1.966c-0.63,0.677-1.259,1.41-1.553,2.302
			c-0.264,0.796-0.292,1.651-0.259,2.483c0.093,2.143,0.654,4.409,0.163,6.536c-0.404,1.9-1.377,3.74-1.548,5.69
			c-0.079,0.857,0,1.73,0.124,2.58c0.184,1.254,0.568,2.965,0.763,4.22c0.172,1.093,0.283,2.218,0.244,3.326
			c-0.03,0.925-0.177,1.856-0.384,2.757c-0.641,2.855-2.092,5.976-2.68,8.844c-0.153,0.763-0.234,1.551-0.2,2.33
			c0.028,1.207,0.372,2.581,0.41,3.786c0.008,0.432-0.033,0.873-0.186,1.279c-0.282,0.739-0.894,1.288-1.479,1.793
			c-0.871,0.738-1.954,1.519-2.568,2.493c-0.659,1.034-0.853,2.396-1.114,3.576c-0.124,0.539-0.266,1.088-0.536,1.574
			c-0.181,0.326-0.431,0.61-0.705,0.861c-0.522,0.478-1.173,0.902-1.669,1.409c-0.349,0.348-0.638,0.757-0.856,1.199
			c-0.612,1.227-0.944,2.788-1.611,3.989c-0.264,0.474-0.604,0.924-1.065,1.22c-0.736,0.465-1.643,0.517-2.492,0.508
			c-1.814-0.043-3.797-0.432-5.611-0.261c-1.093,0.097-2.155,0.434-3.174,0.829c-0.9,0.349-2.241,0.945-3.163,1.177
			c-0.606,0.158-1.245,0.242-1.868,0.141c-0.991-0.16-1.876-0.689-2.702-1.233l-2.001-1.384c-0.538-0.358-1.103-0.703-1.689-0.976
			c-0.767-0.364-1.85-0.72-2.658-1.008c-0.96-0.358-2.017-0.769-2.584-1.677c-0.206-0.333-0.323-0.715-0.393-1.099
			c-0.236-1.328-0.009-3.111,0.044-4.46c0.042-0.984,0.052-1.988-0.142-2.957c-0.108-0.543-0.297-1.072-0.532-1.573
			c-0.567-1.219-1.491-2.353-2.139-3.527c-0.271-0.498-0.5-1.029-0.601-1.59c-0.146-0.816-0.039-1.655,0.098-2.464
			c0.247-1.426,0.654-3.04,0.382-4.482c-0.396-2.057-1.871-3.859-2.945-5.61c-0.56-0.904-1.106-1.856-1.334-2.905
			c-0.158-0.715-0.177-1.459-0.161-2.189c0.021-0.785,0.077-1.806-0.029-2.583c-0.058-0.463-0.179-0.921-0.352-1.353
			c-0.443-1.124-1.212-2.231-1.737-3.316c-0.22-0.46-0.414-0.945-0.49-1.452c-0.096-0.627,0.033-1.263,0.202-1.866
			c0.248-0.87,0.578-1.818,0.57-2.728c-0.004-1.201-0.505-2.334-0.989-3.411c-0.667-1.438-1.577-3.106-2.056-4.612
			c-0.217-0.681-0.371-1.394-0.374-2.112c-0.019-1.352,0.451-2.741,0.8-4.036c0.251-0.946,0.449-1.938,0.308-2.918
			c-0.112-0.777-0.418-1.516-0.763-2.216c-0.682-1.402-1.713-2.85-2.152-4.354c-0.152-0.526-0.208-1.086-0.113-1.628
			c0.247-1.403,1.161-2.604,1.687-3.905c0.233-0.565,0.405-1.167,0.423-1.781c0.028-1.075-0.316-2.123-0.685-3.12
			c-0.615-1.67-1.555-3.461-1.643-5.264c-0.04-0.945,0.172-1.884,0.427-2.788c0.35-1.213,0.807-2.593,0.817-3.864
			c0.015-1.078-0.233-2.147-0.508-3.182c-0.447-1.664-1.125-3.578-1.188-5.301c-0.028-0.671,0.062-1.347,0.236-1.995
			c0.331-1.264,1.019-2.612,1.416-3.855c0.247-0.771,0.405-1.587,0.34-2.399c-0.148-1.824-1.225-3.799-1.913-5.474
			c-0.538-1.285-1.021-2.63-1.127-4.029c-0.183-2.595,0.99-5.22,1.779-7.643c0.403-1.24,0.774-2.525,0.814-3.836
			c0.027-0.835-0.118-1.671-0.357-2.468c-0.419-1.423-1.244-2.98-1.791-4.359c-0.271-0.69-0.505-1.408-0.593-2.147
			c-0.126-1.029,0.077-2.069,0.371-3.054c0.451-1.514,1.182-3.118,1.431-4.684c0.226-1.383,0.049-2.954-0.029-4.349
			c-0.05-1.043-0.046-2.144,0.431-3.098c0.628-1.288,1.795-2.341,2.19-3.746c0.208-0.729,0.211-1.502,0.166-2.254
			c-0.117-1.815-0.581-3.743-0.45-5.567c0.069-0.94,0.343-1.858,0.667-2.739c0.41-1.101,0.934-2.33,1.179-3.473
			c0.177-0.786,0.23-1.601,0.211-2.405c-0.027-1.525-0.35-3.633-0.419-5.158c-0.03-0.689-0.028-1.391,0.091-2.072
			c0.144-0.898,0.592-1.678,1.136-2.393c0.476-0.633,1.048-1.316,1.415-2c0.23-0.421,0.41-0.872,0.523-1.339
			c0.185-0.773,0.224-1.582,0.226-2.374c-0.007-1.776-0.265-4.035-0.313-5.812c-0.028-1.353-0.006-2.754,0.472-4.037
			c0.307-0.82,0.807-1.557,1.373-2.22c0.864-1.022,1.995-2.001,2.686-3.155c0.949-1.607,1.169-3.605,1.846-5.323
			c0.289-0.753,0.679-1.477,1.196-2.099c1.699-2.046,4.261-3.364,5.808-5.551c1.227-1.725,1.496-3.978,2.192-5.932
			c0.241-0.66,0.549-1.315,1.025-1.84c0.417-0.462,0.946-0.81,1.487-1.11c1.012-0.55,2.276-1.072,3.208-1.754
			c0.72-0.51,1.324-1.177,1.774-1.936c1.348-2.273,1.993-5.278,3.158-7.639c0.437-0.886,0.965-1.757,1.711-2.418
			c1.018-0.9,2.376-1.271,3.681-1.53c0.95-0.187,2.252-0.38,3.151-0.66c0.538-0.165,1.068-0.386,1.528-0.716
			c0.634-0.455,1.107-1.097,1.508-1.758c0.93-1.542,1.618-3.426,3.019-4.62c0.735-0.63,1.636-1.036,2.546-1.346
			c2.064-0.693,4.541-0.995,6.623-1.625c0.965-0.29,1.917-0.679,2.742-1.265c1.142-0.785,2.16-1.988,3.176-2.924
			c0.605-0.552,1.283-1.053,2.067-1.315c0.64-0.215,1.324-0.278,1.996-0.29c2.46-0.025,5.109,0.579,7.512-0.165
			c2.665-0.847,4.49-3.184,6.816-4.61c0.484-0.284,1.009-0.522,1.568-0.602c0.627-0.092,1.266,0.009,1.877,0.159
			c1.141,0.29,2.353,0.766,3.547,0.737c0.647-0.008,1.281-0.188,1.873-0.441c1.242-0.522,2.714-1.558,3.857-2.265
			c0.652-0.4,1.327-0.794,2.041-1.07c0.463-0.178,0.955-0.308,1.453-0.312c0.703-0.007,1.382,0.234,2.009,0.532
			c0.86,0.406,1.769,0.992,2.676,1.284c0.392,0.127,0.804,0.206,1.217,0.202c0.613-0.006,1.215-0.169,1.789-0.375
			c1.47-0.537,2.935-1.438,4.424-1.923c0.768-0.254,1.596-0.384,2.398-0.225c0.814,0.15,1.579,0.509,2.313,0.88
			c1.277,0.652,2.614,1.441,4.072,1.56c1.106,0.087,2.208-0.185,3.265-0.485c1.206-0.344,2.803-0.92,4.016-1.084
			c0.715-0.103,1.461-0.114,2.157,0.1c1.078,0.336,1.95,1.107,2.762,1.863c1.057,0.988,2.113,2.171,3.436,2.783
			c0.696,0.327,1.48,0.402,2.239,0.325c2.033-0.192,4.064-1.242,6.113-1.313c0.437-0.009,0.88,0.04,1.294,0.183
			c0.507,0.173,0.964,0.47,1.375,0.809c1.078,0.896,2.061,2.276,3.049,3.27c0.469,0.471,0.982,0.916,1.577,1.22
			c0.707,0.364,1.516,0.474,2.303,0.479c1.547,0.012,3.262-0.367,4.808-0.216c0.462,0.045,0.924,0.141,1.358,0.308
			c0.565,0.216,1.088,0.539,1.572,0.9c2.006,1.5,3.58,3.791,5.923,4.812c1.513,0.649,3.333,0.707,4.945,0.944
			c0.813,0.128,1.65,0.306,2.347,0.764c0.438,0.288,0.787,0.695,1.068,1.133c0.604,0.945,1.003,2.122,1.454,3.145
			c0.45,1.039,0.983,2.075,1.776,2.895c1.859,1.898,4.646,2.668,6.751,4.224c0.525,0.395,1.012,0.863,1.343,1.436
			c0.848,1.493,0.753,3.315,1.077,4.955c0.143,0.756,0.375,1.514,0.815,2.152c0.482,0.704,1.149,1.262,1.829,1.768
			c1.243,0.927,2.768,1.752,3.793,2.938c1.379,1.573,1.088,3.859,1.515,5.772c0.091,0.403,0.223,0.805,0.42,1.169
			c0.202,0.373,0.471,0.709,0.765,1.013c0.981,1.014,2.371,1.8,3.254,2.912c0.511,0.64,0.82,1.421,0.985,2.218
			c0.253,1.226,0.208,2.497,0.085,3.736"/>
	</g>
	<g id="POLYLINE_00000173841491478213520720000002704657333613576126_">
		
			<path fill="none" stroke="#FB8604" stroke-width="2.75" stroke-linecap="round" stroke-linejoin="round" stroke-miterlimit="10" d="
			M137.791,257.287c-0.42,1.474-0.631,3.013-0.634,4.546c0.005,1.262,0.148,2.547,0.593,3.735c0.164,0.431,0.373,0.85,0.639,1.227
			c0.246,0.35,0.545,0.664,0.866,0.946c1.03,0.91,2.415,1.561,3.318,2.614c0.451,0.513,0.748,1.143,0.935,1.796
			c0.319,1.042,0.48,2.681,0.649,3.766c0.12,0.75,0.262,1.514,0.544,2.222c0.172,0.429,0.404,0.843,0.728,1.176
			c0.583,0.597,1.385,0.908,2.164,1.161c0.862,0.282,1.838,0.487,2.633,0.931c0.287,0.163,0.554,0.372,0.751,0.639
			c0.289,0.388,0.441,0.859,0.553,1.325c0.273,1.154,0.316,2.469,0.97,3.494c0.282,0.447,0.696,0.795,1.141,1.072
			c1.278,0.793,2.936,1.192,4.271,1.87c0.43,0.223,0.856,0.486,1.172,0.859c0.498,0.586,0.548,1.399,0.547,2.135
			c0.006,1-0.146,2.148,0.483,3.002c0.246,0.335,0.569,0.607,0.905,0.848c0.745,0.529,1.647,0.973,2.401,1.489
			c0.496,0.34,0.976,0.734,1.301,1.247c0.43,0.682,0.564,1.502,0.656,2.29c0.149,1.272,0.157,2.727,0.892,3.823
			c0.43,0.635,1.043,1.124,1.658,1.571c1.113,0.819,2.515,1.574,3.296,2.745c0.305,0.453,0.481,0.983,0.553,1.522
			c0.094,0.69,0.048,1.396-0.038,2.084c-0.19,1.501-0.713,3.476-0.907,4.978c-0.089,0.677-0.135,1.371-0.08,2.052
			c0.061,0.8,0.247,1.596,0.469,2.365c0.287,0.993,0.75,2.317,0.83,3.347c0.048,0.515,0.021,1.039-0.083,1.546
			c-0.485,2.341-2.103,4.426-2.363,6.824c-0.079,0.829,0.081,1.661,0.293,2.46c0.327,1.229,0.838,2.632,0.702,3.915
			c-0.114,1.167-0.711,2.22-1.315,3.201c-0.726,1.169-1.765,2.537-2.389,3.763c-0.232,0.461-0.435,0.948-0.532,1.457
			c-0.161,0.82,0.003,1.662,0.236,2.452l0.381,1.253c0.197,0.676,0.348,1.378,0.349,2.084c0,0.89-0.204,1.776-0.427,2.634
			c-0.289,1.072-0.717,2.435-0.878,3.521c-0.08,0.57-0.111,1.162,0.035,1.724c0.185,0.721,0.7,1.295,1.241,1.781
			c0.904,0.811,2,1.507,2.647,2.559c0.706,1.17,0.702,2.716,0.821,4.042c0.069,0.729,0.139,1.49,0.475,2.152
			c0.115,0.221,0.268,0.423,0.456,0.586c0.254,0.222,0.561,0.377,0.879,0.485c0.87,0.288,1.809,0.292,2.717,0.252
			c1.103-0.049,2.514-0.27,3.618-0.395c0.571-0.062,1.156-0.105,1.73-0.071c0.488,0.029,0.978,0.118,1.436,0.292
			c0.405,0.151,0.783,0.371,1.132,0.623c1.155,0.835,2.167,2.031,3.366,2.809c0.341,0.218,0.709,0.406,1.102,0.508
			c0.335,0.087,0.687,0.106,1.031,0.079c1.466-0.129,2.899-0.929,4.377-0.989c0.844-0.038,1.685,0.153,2.494,0.377
			c1.415,0.399,2.955,0.954,4.437,0.999c1.884,0.063,3.77-0.521,5.351-1.533c1.008-0.653,1.906-1.511,2.503-2.561
			c0.578-1.015,0.862-2.176,1.103-3.31c0.266-1.232,0.467-2.592,1.06-3.716c0.502-0.964,1.4-1.636,2.298-2.21
			c1.017-0.651,2.208-1.292,3.024-2.192c0.639-0.704,1.079-1.566,1.466-2.428c0.584-1.321,1.138-2.828,1.954-4.023
			c0.843-1.264,2.283-2.534,3.36-3.609c0.772-0.78,1.534-1.616,2.004-2.618c0.338-0.72,0.486-1.515,0.584-2.299
			c0.18-1.508,0.225-3.248,1.048-4.567c0.451-0.733,1.104-1.321,1.776-1.848c1.945-1.524,4.479-2.697,6.044-4.653
			c1.523-1.892,1.201-4.484,1.408-6.752c0.066-0.658,0.179-1.33,0.481-1.925c0.412-0.811,1.194-1.343,1.954-1.799
			c0.921-0.556,2.062-1.088,2.73-1.954c0.335-0.432,0.52-0.961,0.62-1.494c0.215-1.104,0.117-2.714,0.125-3.845
			c0.007-1.037,0.066-2.097,0.376-3.092c0.315-1.007,0.876-1.921,1.483-2.777c1.147-1.639,2.685-3.201,3.244-5.163
			c0.564-2.053-0.096-4.279,0.209-6.358c0.081-0.519,0.244-1.031,0.516-1.483c0.67-1.109,1.819-1.942,2.776-2.791
			c0.713-0.634,1.443-1.325,1.801-2.23c0.271-0.695,0.29-1.459,0.241-2.194c-0.107-1.553-0.543-3.233-0.322-4.791
			c0.128-0.931,0.54-1.797,1.017-2.597c0.889-1.479,2.123-2.994,2.769-4.603c0.228-0.559,0.398-1.146,0.483-1.744
			c0.139-0.974,0.088-1.973-0.025-2.947c-0.241-2.064-0.829-4.221-1.046-6.287c-0.075-0.774-0.101-1.57,0.049-2.336
			c0.203-1.081,0.845-2.015,1.544-2.84c0.76-0.897,1.698-1.878,2.199-2.947c0.659-1.395,0.698-2.985,0.714-4.501
			c0.006-2.098-0.188-4.519,0.319-6.556c0.26-1.028,0.739-1.992,1.273-2.902c0.678-1.165,1.505-2.337,1.966-3.609
			c0.348-0.928,0.429-1.933,0.398-2.917c-0.054-1.827-0.443-3.808-0.311-5.636c0.045-0.652,0.172-1.303,0.386-1.92
			c0.365-1.103,1.125-2.401,1.67-3.433c0.462-0.894,0.917-1.844,0.963-2.866c0.033-0.751-0.147-1.497-0.356-2.213
			c-0.331-1.103-0.813-2.4-0.774-3.564c0.032-1.012,0.396-1.981,0.781-2.906c0.719-1.674,1.627-3.485,1.786-5.319
			c0.144-1.476-0.057-2.973-0.425-4.403c-0.471-1.811-1.219-3.559-2.12-5.197"/>
	</g>
	<g id="POLYLINE_00000168818916136475326020000016072559740672167057_">
		
			<path fill="none" stroke="#FB8604" stroke-width="2.75" stroke-linecap="round" stroke-linejoin="round" stroke-miterlimit="10" d="
			M102.516,151.737c-1.006,1.165-1.856,2.477-2.48,3.885c-0.428,0.991-0.763,2.058-0.744,3.148c0.01,0.392,0.073,0.787,0.213,1.155
			c0.16,0.421,0.417,0.8,0.711,1.138c1.37,1.554,3.684,2.592,4,4.847c0.108,0.677,0.082,1.374,0.019,2.055
			c-0.136,1.437-0.539,3.26-0.635,4.699c-0.06,0.915-0.039,1.87,0.31,2.731c0.364,0.896,1.048,1.617,1.769,2.244
			c1.595,1.39,3.736,2.584,4.524,4.657c0.724,1.879,0.629,4.04,0.946,6.003c0.139,0.846,0.353,1.709,0.831,2.433
			c0.643,0.963,1.682,1.562,2.693,2.074c1.154,0.577,2.636,1.182,3.624,2.002c0.403,0.33,0.747,0.731,1.029,1.168
			c0.776,1.201,1.218,2.815,1.746,4.138c0.45,1.155,1.029,2.279,1.846,3.219c1.603,1.845,3.802,3.188,6.182,3.751
			c0.864,0.197,1.761,0.279,2.644,0.187c0.664-0.068,1.316-0.249,1.93-0.508c2.319-0.993,4.248-2.976,6.327-4.359
			c0.693-0.466,1.431-0.892,2.206-1.208c0.959-0.394,1.985-0.649,2.999-0.855l2.687-0.504c1.428-0.292,2.913-0.661,4.082-1.575
			c1.05-0.831,1.757-2.009,2.383-3.172c0.802-1.492,1.65-3.495,2.832-4.717c0.818-0.869,2.079-1.593,3.077-2.244
			c0.785-0.518,1.543-1.113,2.091-1.886c0.397-0.555,0.678-1.188,0.899-1.831c0.371-1.094,0.586-2.259,0.763-3.398l0.569-4.17
			c0.181-1.236,0.458-2.472,0.923-3.633c0.341-0.902,0.822-1.908,1.026-2.849c0.144-0.632,0.181-1.289,0.12-1.933
			c-0.314-2.892-1.697-5.871-2.149-8.745c-0.102-0.631-0.148-1.28-0.127-1.92c0.016-0.846,0.193-1.939,0.311-2.783
			c0.137-0.966,0.224-1.962,0.114-2.935c-0.128-1.144-0.478-2.259-0.915-3.32c-1.073-2.535-2.645-4.879-4.588-6.829"/>
	</g>
	<g id="POLYLINE_00000080186842278731212040000015642891775853380519_">
		
			<path fill="none" stroke="#FB8604" stroke-width="2.75" stroke-linecap="round" stroke-linejoin="round" stroke-miterlimit="10" d="
			M874.966,329.375c6.261-4.261,13.206-7.57,20.306-10.175c4.736-1.707,9.674-3.063,14.671-3.72
			c3.476-0.464,7.071-0.498,10.573-0.384c3.721,0.099,9.987,0.679,13.616,0.188c1.058-0.142,2.114-0.4,3.076-0.872
			c0.945-0.457,1.787-1.121,2.481-1.907c1.017-1.16,1.786-2.525,2.461-3.905c0.863-1.823,1.532-3.78,1.677-5.803
			c0.112-1.543-0.106-3.1-0.48-4.596"/>
	</g>
	<g id="POLYLINE_00000105401676315614405570000012195093567124535693_">
		
			<path fill="none" stroke="#FB8604" stroke-width="2.75" stroke-linecap="round" stroke-linejoin="round" stroke-miterlimit="10" d="
			M909.58,294.019c4.465,1.064,9.198,2.083,13.755,2.561c5.425,0.595,12.662,0.734,18.055,1.54c0.955,0.1,1.95,0.185,2.887-0.073
			c0.54-0.148,1.038-0.439,1.432-0.836c0.852-0.864,1.34-2.016,1.732-3.147c0.742-2.26,1.105-4.659,1.341-7.021
			c0.284-3.109,0.1-6.46-1.637-9.152c-0.802-1.251-1.877-2.314-3.022-3.252c-2.973-2.461-8.82-5.482-12.171-7.479
			c-9.571-5.685-21.228-14.073-30.893-19.552c-4.995-2.815-10.228-5.428-15.738-7.061c-6.207-1.894-14.019-2.382-20.486-3.058
			c-5.074-0.485-11.742-1.884-16.789-2.842c-6.12-1.072-12.569-1.922-18.655-0.239c-4.736,1.338-8.887,4.194-12.64,7.3
			c-2.608,2.13-6.051,5.514-8.633,7.695c-1.946,1.661-4.724,3.411-6.794,4.923"/>
	</g>
	<g id="POLYLINE_00000178167152872983892910000000340955381539888788_">
		
			<path fill="none" stroke="#FB8604" stroke-width="2.75" stroke-linecap="round" stroke-linejoin="round" stroke-miterlimit="10" d="
			M931.873,282.635c0.236-0.904,0.476-1.855,1.026-2.625c0.252-0.355,0.57-0.665,0.936-0.901c0.613-0.394,1.328-0.604,2.041-0.726
			c1.049-0.17,2.138-0.151,3.176,0.086c0.667,0.158,1.331,0.412,1.866,0.851c1.286,1.076,1.413,2.892,1.486,4.454"/>
	</g>
	<g id="POLYLINE_00000015333115421361651530000011448296464189736843_">
		
			<path fill="none" stroke="#FB8604" stroke-width="2.75" stroke-linecap="round" stroke-linejoin="round" stroke-miterlimit="10" d="
			M507.104,348.476c1.365-1.227,2.833-2.378,4.448-3.257c1.214-0.662,2.535-1.159,3.913-1.323c1.917-0.243,3.976-0.047,5.86-0.532
			c1.646-0.401,3.091-1.375,4.461-2.335c1.817-1.26,3.702-2.845,5.839-3.49c1.047-0.305,2.164-0.32,3.247-0.284
			c1.272,0.039,2.614,0.145,3.849-0.21c0.635-0.18,1.232-0.487,1.794-0.831c1.226-0.755,2.498-1.853,3.724-2.607
			c0.85-0.528,1.762-0.927,2.772-0.989c1.973-0.129,4.043,0.595,6.026,0.378c1-0.094,1.965-0.424,2.883-0.818
			c2.312-0.995,4.794-2.675,7.219-3.388c0.911-0.273,1.872-0.375,2.821-0.347c1.636,0.036,3.536,0.47,5.169,0.531
			c0.739,0.03,1.49-0.013,2.212-0.174c1.784-0.392,3.554-1.393,5.206-2.143c1.136-0.517,2.326-1.004,3.578-1.13
			c2.102-0.225,4.232,0.59,6.331,0.465c1.839-0.091,3.417-1.356,4.916-2.296c0.868-0.541,1.796-1.076,2.829-1.196
			c0.67-0.076,1.35,0.025,2.003,0.176c1.333,0.311,2.706,0.856,4.087,0.877c1.133,0.026,2.222-0.381,3.24-0.84
			c1.052-0.476,2.176-1.099,3.254-1.51c0.482-0.182,0.986-0.334,1.499-0.397c1.45-0.19,2.885,0.528,4.237,0.946
			c0.881,0.28,1.823,0.437,2.742,0.275c1.717-0.29,3.393-1.247,5.02-1.829c0.512-0.183,1.044-0.345,1.586-0.406
			c0.374-0.043,0.758-0.025,1.123,0.067c0.487,0.119,0.943,0.35,1.377,0.595c0.893,0.519,1.855,1.144,2.888,1.312
			c0.579,0.102,1.176,0.082,1.758,0.019c1.468-0.161,3.279-0.695,4.725-1.012c0.737-0.161,1.5-0.308,2.254-0.35
			c0.506-0.027,1.023-0.007,1.515,0.123c0.678,0.176,1.283,0.555,1.841,0.967c0.878,0.654,1.782,1.446,2.904,1.591
			c1.262,0.153,2.582-0.267,3.785-0.614c1.251-0.377,2.774-0.9,4.05-1.074c0.521-0.071,1.054-0.096,1.575-0.016
			c0.798,0.117,1.542,0.466,2.241,0.856c0.811,0.456,1.717,1.03,2.606,1.287c0.497,0.15,1.02,0.203,1.538,0.192
			c1.772-0.05,3.653-0.676,5.401-0.935c0.681-0.101,1.38-0.162,2.067-0.09c0.863,0.089,1.687,0.409,2.464,0.783
			c0.919,0.436,1.928,1.035,2.923,1.26c0.452,0.106,0.922,0.126,1.384,0.094c1.034-0.073,2.114-0.375,3.133-0.559
			c0.89-0.164,1.81-0.259,2.712-0.139c2.395,0.324,4.607,1.692,6.982,2.099c0.477,0.08,0.966,0.114,1.449,0.079
			c0.858-0.057,1.704-0.301,2.521-0.56c1.151-0.357,2.384-0.848,3.611-0.701c1.035,0.129,2.037,0.709,2.983,1.115
			c0.814,0.357,1.714,0.633,2.607,0.462c0.55-0.096,1.078-0.303,1.585-0.532c1.342-0.609,2.696-1.496,4.156-1.798
			c1.155-0.251,2.335,0.078,3.417,0.479c1.255,0.45,2.573,1.108,3.931,1.082c0.657-0.019,1.294-0.224,1.896-0.475
			c0.86-0.358,1.783-0.888,2.669-1.181c0.367-0.12,0.75-0.207,1.137-0.218c0.346-0.01,0.693,0.044,1.027,0.134
			c1.116,0.306,2.17,0.984,3.26,1.36c0.541,0.189,1.12,0.306,1.694,0.247c1.268-0.126,2.462-0.852,3.636-1.293
			c0.437-0.164,0.894-0.305,1.362-0.332c0.83-0.05,1.65,0.301,2.424,0.556c0.561,0.185,1.157,0.329,1.751,0.255
			c0.636-0.079,1.235-0.347,1.81-0.617c0.864-0.405,1.823-0.969,2.775-1.107c0.894-0.145,1.767,0.342,2.557,0.695
			c0.388,0.17,0.795,0.323,1.221,0.354c0.303,0.024,0.608-0.028,0.892-0.135c0.385-0.143,0.741-0.364,1.076-0.6
			c1.256-0.898,2.508-2.225,3.854-2.991c0.426-0.244,0.885-0.437,1.366-0.538c0.778-0.176,1.707-0.125,2.503-0.12
			c0.49-0.004,1.005-0.016,1.457-0.229c0.214-0.1,0.399-0.255,0.544-0.441c0.292-0.377,0.46-0.835,0.606-1.284
			c0.448-1.428,0.676-3.043,1.489-4.326c0.895-1.427,2.635-2.064,4.086-2.767c0.738-0.368,1.529-0.765,2-1.469
			c0.375-0.574,0.486-1.273,0.558-1.943l0.109-1.18c0.076-0.743,0.214-1.506,0.607-2.153c1.08-1.768,3.235-2.774,3.935-4.797
			c0.461-1.347,0.347-2.833,0.525-4.228c0.078-0.592,0.216-1.201,0.575-1.691c0.562-0.777,1.505-1.263,2.143-1.968
			c0.234-0.254,0.436-0.541,0.581-0.855c0.317-0.703,0.394-1.489,0.438-2.25c0.078-1.464-0.059-3.183,0.114-4.641
			c0.059-0.464,0.152-0.934,0.341-1.364c0.337-0.799,1.053-1.408,1.671-1.991c0.375-0.36,0.731-0.758,0.951-1.233
			c0.305-0.666,0.376-1.414,0.435-2.136c0.12-1.558,0.057-3.363,0.852-4.757c0.763-1.309,2.173-2.189,3.346-3.099
			c0.508-0.396,1.014-0.816,1.414-1.324c0.281-0.357,0.498-0.764,0.675-1.182c0.365-0.838,0.574-1.837,1.122-2.583
			c0.214-0.293,0.496-0.531,0.804-0.721c1.046-0.631,2.356-0.924,3.428-1.503c0.384-0.203,0.752-0.447,1.073-0.741
			c0.485-0.443,0.883-0.982,1.245-1.527c0.632-0.944,1.229-2.088,2.053-2.881c0.331-0.32,0.718-0.582,1.126-0.793
			c1.299-0.688,2.857-0.863,4.133-1.598c0.65-0.363,1.305-0.866,2.064-0.958c0.807-0.092,1.659,0.196,2.253,0.748
			c0.265,0.249,0.474,0.56,0.592,0.904c0.27,0.822,0.159,1.715,0.069,2.559c-0.093,0.892-0.307,1.944-0.146,2.831
			c0.095,0.516,0.381,1.021,0.63,1.478c0.135,0.258,0.256,0.532,0.292,0.824c0.065,0.545-0.099,1.153-0.194,1.689
			c-0.104,0.545-0.171,1.108-0.098,1.661c0.167,1.271,0.785,2.443,1.519,3.477"/>
	</g>
	<g id="POLYLINE_00000072275676721721667900000014432761161416072367_">
		
			<path fill="none" stroke="#FB8604" stroke-width="2.75" stroke-linecap="round" stroke-linejoin="round" stroke-miterlimit="10" d="
			M820.125,289.998c1.937,0.701,3.956,1.651,5.228,3.332c0.731,0.975,1.099,2.264,1.515,3.398c0.276,0.741,0.597,1.489,1.112,2.097
			c0.753,0.895,1.987,1.451,2.994,2.012c0.605,0.341,1.23,0.706,1.67,1.255c0.296,0.374,0.471,0.828,0.612,1.279
			c0.163,0.542,0.331,1.187,0.602,1.676c0.161,0.292,0.375,0.557,0.637,0.764c0.387,0.306,0.848,0.509,1.308,0.68
			c1.116,0.403,2.4,0.654,3.534,1.005c0.763,0.245,1.562,0.523,2.15,1.09c0.392,0.384,0.641,0.885,0.848,1.387
			c0.213,0.499,0.408,1.087,0.748,1.512c0.167,0.215,0.379,0.396,0.618,0.528c0.33,0.185,0.699,0.301,1.064,0.394
			c0.893,0.223,2.042,0.355,2.929,0.596c0.797,0.21,1.573,0.545,2.111,1.193c0.636,0.739,1.03,1.77,1.462,2.636
			c0.35,0.707,0.762,1.416,1.385,1.917c0.749,0.598,1.71,0.837,2.634,1.013c1.209,0.226,2.766,0.335,3.962,0.62
			c0.543,0.132,1.09,0.308,1.56,0.617c0.564,0.369,0.969,0.928,1.308,1.499c0.392,0.656,0.775,1.455,1.355,1.969
			c0.768,0.681,1.89,0.755,2.869,0.821c0.909,0.05,2.034,0.041,2.92,0.224c0.329,0.068,0.653,0.175,0.946,0.341
			c0.654,0.354,1.205,1.046,1.707,1.583c0.315,0.337,0.658,0.66,1.04,0.919c0.676,0.465,1.726,0.883,2.475,1.231
			c2.307,1.068,2.599,1.888,1.827,4.278c-0.391,1.231-0.981,2.562-1.023,3.861c-0.014,0.601,0.124,1.196,0.327,1.759
			c0.305,0.851,0.768,1.705,1.012,2.577c0.107,0.38,0.176,0.773,0.183,1.168c0.01,0.506-0.071,1.013-0.189,1.504
			c-0.45,1.813-1.405,3.674-1.92,5.468c-0.202,0.701-0.355,1.428-0.366,2.16c-0.031,1.334,0.395,2.691,0.687,3.982
			c0.157,0.719,0.273,1.468,0.171,2.203c-0.111,0.798-0.483,1.534-0.872,2.23c-0.632,1.115-1.479,2.375-1.75,3.637
			c-0.162,0.704-0.129,1.439,0.002,2.146c0.222,1.252,0.867,2.857,1.283,4.068c0.417,1.233,0.796,2.549,0.516,3.854
			c-0.266,1.421-1.117,2.768-1.19,4.23c-0.042,0.837,0.22,1.656,0.5,2.434c0.536,1.497,1.385,3.15,1.148,4.777
			c-0.103,0.675-0.398,1.307-0.734,1.896c-0.597,1.049-1.515,2.181-2.037,3.269c-0.289,0.6-0.484,1.279-0.364,1.948
			c0.098,0.581,0.363,1.12,0.653,1.627c0.65,1.14,1.598,2.253,1.922,3.546c0.069,0.289,0.099,0.589,0.076,0.885
			c-0.033,0.447-0.167,0.882-0.34,1.293c-0.567,1.334-1.547,2.52-2.13,3.845c-0.211,0.489-0.367,1.02-0.33,1.557
			c0.072,1.08,0.793,2.072,1.304,2.99c0.323,0.578,0.636,1.196,0.681,1.868c0.045,0.763-0.268,1.491-0.6,2.16
			c-0.618,1.248-1.556,2.535-1.643,3.965c-0.04,0.732,0.132,1.459,0.334,2.157c0.199,0.68,0.486,1.497,0.599,2.191
			c0.064,0.393,0.083,0.801-0.005,1.192c-0.138,0.622-0.498,1.167-0.864,1.678c-0.589,0.813-1.284,1.64-1.607,2.6
			c-0.203,0.591-0.248,1.226-0.234,1.848c0.033,1.374,0.391,3.04,0.416,4.414c0.01,0.554-0.024,1.116-0.163,1.654
			c-0.106,0.412-0.278,0.806-0.487,1.176c-0.627,1.111-1.664,2.107-2.405,3.14c-0.364,0.508-0.681,1.066-0.823,1.68
			c-0.271,1.145-0.047,2.378-0.056,3.539c-0.007,0.482-0.054,0.979-0.257,1.422c-0.344,0.751-1.117,1.301-1.712,1.845
			c-0.649,0.575-1.222,1.246-1.43,2.108c-0.197,0.777-0.192,1.598-0.168,2.394c0.045,1.56,0.31,3.347-0.018,4.882
			c-0.077,0.343-0.194,0.683-0.367,0.99c-0.196,0.351-0.458,0.664-0.747,0.942c-0.738,0.726-1.742,1.26-2.426,2.043
			c-0.181,0.214-0.336,0.455-0.43,0.72c-0.112,0.313-0.142,0.651-0.137,0.982c0.025,1.015,0.372,2.159,0.488,3.164
			c0.069,0.584,0.087,1.194-0.102,1.758c-0.17,0.508-0.49,0.951-0.847,1.344c-0.453,0.507-1.27,1.198-1.774,1.66
			c-0.662,0.61-1.301,1.274-1.739,2.067c-0.584,1.065-0.798,2.291-0.962,3.482c-0.157,1.162-0.253,2.5-0.51,3.642
			c-0.112,0.486-0.261,0.973-0.495,1.415c-0.583,1.146-1.879,1.706-2.954,2.29c-0.574,0.317-1.147,0.679-1.56,1.197
			c-0.325,0.408-0.538,0.894-0.706,1.384c-0.338,0.989-0.547,2.219-0.922,3.194c-0.195,0.507-0.451,1.003-0.827,1.4
			c-0.969,1-2.441,1.333-3.719,1.764c-0.477,0.165-0.974,0.335-1.364,0.667c-0.37,0.307-0.634,0.777-0.952,1.133
			c-0.539,0.6-1.292,0.956-2.016,1.283c-0.901,0.394-1.889,0.709-2.827,1.005c-1.424,0.443-2.909,0.847-4.374,1.129
			c-0.767,0.147-1.588,0.27-2.365,0.345c-0.146,0.013-0.46,0.042-0.607,0.051c-0.444,0.035-0.993,0.053-1.439,0.066
			c0,0-0.557,0.009-0.557,0.009l-72.618,0.004"/>
	</g>
	<g id="POLYLINE_00000056386146025629403270000005944248218511220387_">
		
			<path fill="none" stroke="#FB8604" stroke-width="2.75" stroke-linecap="round" stroke-linejoin="round" stroke-miterlimit="10" d="
			M835.477,264.762c0.052,2.895-0.174,5.889-1.405,8.549c-0.868,1.885-2.161,3.553-3.501,5.125
			c-1.423,1.631-14.249,15.798-15.739,17.378c-2.163,2.279-4.492,4.618-6.877,6.659c-3.472,2.989-7.355,5.545-11.386,7.716
			c-2.857,1.517-5.99,3.083-8.976,4.331c-1.018,0.407-2.08,0.791-3.154,1.022c-0.622,0.131-1.264,0.219-1.9,0.183
			c-0.566-0.032-1.141-0.176-1.609-0.506c-0.409-0.284-0.707-0.701-0.91-1.151c-0.475-1.077-0.546-2.286-0.528-3.449
			c0.099-3.019,0.886-5.991,1.926-8.814c0.74-1.964,1.651-3.889,2.777-5.662c0.934-1.471,2.036-2.855,3.219-4.132
			c2.484-2.708,6.05-5.553,8.436-8.349c1.455-1.671,2.648-3.575,3.68-5.531c1.55-2.903,3.306-7.12,4.853-10.029
			c0.96-1.794,2.054-3.564,3.495-5.014c2.055-2.103,4.721-3.481,7.411-4.596l2.153-0.873"/>
	</g>
	<g id="POLYLINE_00000080900982615897507500000002048290930605508762_">
		
			<path fill="none" stroke="#FB8604" stroke-width="2.75" stroke-linecap="round" stroke-linejoin="round" stroke-miterlimit="10" d="
			M506.317,471.044c1.123-0.87,2.161-1.877,3.012-3.016c0.619-0.834,1.148-1.755,1.443-2.756c0.389-1.256,0.234-2.706,0.174-4.002
			c-0.028-0.77-0.015-1.566,0.254-2.297c0.601-1.57,2.07-2.688,2.707-4.24c0.615-1.479,0.188-3.255,0.03-4.792
			c-0.081-0.748-0.134-1.514-0.026-2.262c0.095-0.656,0.326-1.289,0.594-1.893c0.629-1.411,1.551-2.874,1.44-4.477
			c-0.143-2.342-1.51-4.573-1.293-6.953c0.265-2.397,2.041-4.356,2.54-6.686c0.496-2.363-0.614-4.718-0.435-7.086
			c0.072-0.933,0.437-1.814,0.848-2.645c0.541-1.12,1.313-2.304,1.385-3.574c0.043-0.923-0.287-1.871-0.515-2.756
			c-0.165-0.639-0.297-1.307-0.223-1.969c0.087-0.76,0.422-1.469,0.767-2.143c0.641-1.25,1.498-2.541,1.577-3.976
			c0.069-1.231-0.377-2.575-0.624-3.772c-0.22-1.031-0.318-2.099,0.055-3.107c0.432-1.218,1.382-2.484,2.06-3.583
			c0.551-0.889,1.057-1.834,1.294-2.86c0.184-0.778,0.187-1.59,0.104-2.381c-0.238-2.266-1.213-4.738-1.611-6.977
			c-0.158-0.891-0.226-1.815-0.053-2.708c0.112-0.622,0.323-1.241,0.546-1.832c0.199-0.529,0.497-1.246,0.612-1.798
			c0.089-0.408,0.103-0.842-0.031-1.241c-0.256-0.775-0.867-1.445-1.322-2.11c-0.321-0.456-0.62-0.94-0.817-1.463
			c-0.14-0.368-0.224-0.757-0.272-1.147c-0.18-1.505,0.101-3.259,0.054-4.769c-0.021-0.651-0.094-1.315-0.328-1.927
			c-0.303-0.793-0.871-1.451-1.463-2.045c-0.675-0.677-1.524-1.398-2.029-2.212c-0.294-0.47-0.466-1.007-0.601-1.541l-0.233-0.968
			c-0.171-0.683-0.421-1.411-1.011-1.845c-0.41-0.306-0.901-0.482-1.387-0.63c-1.364-0.408-2.899-0.572-4.127-1.336
			c-1.076-0.677-1.702-1.915-2.406-2.932c-0.289-0.411-0.611-0.814-1.029-1.1c-0.309-0.212-0.67-0.338-1.036-0.406
			c-0.455-0.085-0.927-0.091-1.389-0.077c-1.057,0.039-2.264,0.191-3.319,0.114c-1.339-0.085-2.622-0.636-3.94-0.842
			c-0.65-0.099-1.341-0.067-1.933,0.242c-0.733,0.373-1.327,0.982-1.906,1.555c-0.965,0.974-1.99,2.078-3.261,2.643
			c-0.797,0.353-1.672,0.495-2.533,0.591c-1.099,0.133-2.543,0.143-3.567,0.574c-0.389,0.162-0.744,0.414-0.999,0.752
			c-0.32,0.415-0.52,0.91-0.689,1.403c-0.372,1.118-0.627,2.402-1.178,3.449c-0.201,0.385-0.446,0.75-0.745,1.066
			c-0.35,0.369-0.768,0.672-1.206,0.928c-1.407,0.827-3.484,1.362-5.033,1.885c-1.05,0.359-2.122,0.749-3.022,1.412
			c-0.383,0.285-0.721,0.632-1.01,1.011c-0.645,0.835-1.103,1.922-1.637,2.829c-0.26,0.437-0.558,0.861-0.933,1.208
			c-0.29,0.272-0.631,0.487-0.989,0.657c-2.29,1.063-5.47,0.947-6.934,3.326c-0.471,0.744-0.767,1.589-1.003,2.432
			c-0.595,2.112-0.801,4.58-1.568,6.642c-0.197,0.519-0.461,1.017-0.78,1.472c-0.433,0.635-1.107,1.323-1.616,1.901
			c-0.38,0.435-0.741,0.906-0.974,1.438c-0.417,0.951-0.379,2.027-0.339,3.044c0.078,1.835,0.415,3.989-0.351,5.721
			c-0.398,0.883-1.055,1.62-1.729,2.303c-0.858,0.87-1.898,1.759-2.521,2.818c-0.397,0.66-0.561,1.433-0.582,2.197
			c-0.038,1.063,0.172,2.377,0.284,3.44c0.087,0.877,0.138,1.779-0.044,2.648c-0.432,2.034-1.896,3.719-2.569,5.663
			c-0.646,1.798-0.539,3.967-0.625,5.856c-0.054,1.172-0.165,2.368-0.546,3.484c-0.321,0.94-0.845,1.803-1.401,2.621
			c-0.828,1.227-1.932,2.545-2.352,3.973c-0.18,0.614-0.19,1.266-0.124,1.899c0.109,1.08,0.442,2.232,0.507,3.317
			c0.031,0.523-0.002,1.056-0.154,1.559c-0.197,0.656-0.553,1.257-0.934,1.822c-0.861,1.293-2.095,2.588-2.475,4.128
			c-0.217,0.899-0.144,1.841-0.028,2.749c0.213,1.55,0.537,3.242,0.398,4.806c-0.281,3.082-1.866,6.007-2.746,8.938
			c-0.212,0.723-0.397,1.472-0.412,2.229c-0.01,0.514,0.087,1.029,0.257,1.513c0.344,0.98,0.968,1.943,1.128,2.982
			c0.088,0.522,0.068,1.059,0.013,1.583c-0.173,1.543-0.686,3.26-0.921,4.793c-0.121,0.791-0.198,1.605-0.091,2.402
			c0.092,0.676,0.332,1.325,0.632,1.935c0.493,1.003,1.215,2.065,1.561,3.135c0.31,0.914,0.3,1.9,0.235,2.852l-0.152,1.818
			c-0.064,1.017-0.112,2.114,0.384,3.039c0.465,0.857,1.35,1.501,2.073,2.131c0.443,0.39,0.89,0.813,1.142,1.355
			c0.303,0.657,0.276,1.477,0.319,2.186c0.026,0.402,0.071,0.815,0.24,1.185c0.102,0.227,0.259,0.427,0.451,0.585
			c0.534,0.434,1.223,0.622,1.89,0.739c1.049,0.166,2.132,0.146,3.173-0.061"/>
	</g>
	<g id="POLYLINE_00000059999668543471358140000013757092294283149501_">
		
			<path fill="none" stroke="#FB8604" stroke-width="2.75" stroke-linecap="round" stroke-linejoin="round" stroke-miterlimit="10" d="
			M543.086,494.708c2.368,0.978,4.848,1.74,7.363,2.234c3.06,0.609,6.251,0.811,9.368,0.859c2.301-0.014,53.628,0.06,54.465-0.014
			c1.375-0.035,2.903-0.108,4.268-0.243c3.249-0.308,6.484-1.019,9.609-1.945"/>
	</g>
	<g id="POLYLINE_00000014598656506994491430000014570069817832522430_">
		
			<path fill="none" stroke="#FB8604" stroke-width="2.75" stroke-linecap="round" stroke-linejoin="round" stroke-miterlimit="10" d="
			M514.109,497.822c0.077-3.925,0.273-8.004,1.874-11.647c1.029-2.363,2.659-4.418,4.456-6.245c2.76-2.792,6.096-5.425,9.146-7.904"
			/>
	</g>
	<g id="POLYLINE_00000030464508139023020170000014504546514900711350_">
		
			<path fill="none" stroke="#FB8604" stroke-width="2.75" stroke-linecap="round" stroke-linejoin="round" stroke-miterlimit="10" d="
			M458.625,482.206c0.798-0.201,4.04-0.909,4.83-1.111c1.499-0.369,3.11-0.83,4.585-1.289l13.756-4.512
			c4.117-1.252,8.393-2.381,12.641-3.064c5.695-0.944,11.614-1.252,17.382-1.36c4.543-0.062,9.423-0.219,13.916,0.416
			c2.702,0.378,5.385,1.037,7.928,2.029c2.751,1.076,5.528,2.488,7.347,4.894c1.205,1.56,1.929,3.441,2.348,5.354
			c0.397,1.794,0.578,3.649,0.581,5.485c-0.006,1.518-0.123,3.056-0.492,4.533c-0.245,0.959-0.616,1.921-1.288,2.664
			c-1.293,1.448-3.386,1.535-5.197,1.569l-79.199,0.006c-1.242-0.027-3.676,0.018-4.879-0.059c-1.029-0.052-2.078-0.132-3.073-0.412
			c-1.302-0.359-2.473-1.167-3.262-2.265c-0.962-1.324-1.387-3.01-1.25-4.635c0.062-0.72,0.24-1.438,0.564-2.087
			c0.269-0.542,0.65-1.026,1.095-1.434c0.953-0.867,2.139-1.44,3.308-1.958C452.957,483.822,455.788,482.923,458.625,482.206z"/>
	</g>
	<g id="POLYLINE_00000151504730166715765880000002211926936599644048_">
		
			<line fill="none" stroke="#FB8604" stroke-width="2.75" stroke-linecap="round" stroke-linejoin="round" stroke-miterlimit="10" x1="643.567" y1="497.822" x2="655.07" y2="474.681"/>
	</g>
	<g id="POLYLINE_00000126308820098464055440000012615097427210890149_">
		
			<path fill="none" stroke="#FB8604" stroke-width="2.75" stroke-linecap="round" stroke-linejoin="round" stroke-miterlimit="10" d="
			M654.333,474.022c-2.933-0.09-6.656-0.239-9.58-0.168c-1.637,0.041-3.385,0.108-5.005,0.363c-2.426,0.384-4.908,1.243-6.638,3.057
			c-1.625,1.699-2.499,3.953-3.209,6.157c-0.874,2.832-1.503,5.789-1.851,8.732c-0.101,1.027-0.178,2.085,0.027,3.104
			c0.088,0.426,0.239,0.846,0.492,1.202c0.212,0.3,0.5,0.544,0.826,0.714c0.395,0.208,0.836,0.324,1.273,0.405
			c1.366,0.234,2.951,0.214,4.343,0.232c0,0,119.341,0,119.341,0l0.402-0.005c0,0,0.386-0.009,0.386-0.009
			c0.346-0.012,0.734-0.032,1.079-0.07c0.602-0.064,1.204-0.188,1.77-0.407c0.993-0.383,1.868-1.038,2.589-1.814
			c1.259-1.354,2.035-3.122,2.29-4.946c0.221-1.579,0.111-3.193-0.169-4.757c-0.404-2.219-1.173-4.384-2.196-6.392
			c-1.243-2.502-3.125-4.63-5.125-6.554c-4.349-4.157-9.841-8.284-14.636-11.965"/>
	</g>
	<g id="POLYLINE_00000183935478272521425470000010357348918281960323_">
		
			<path fill="none" stroke="#FB8604" stroke-width="2.75" stroke-linecap="round" stroke-linejoin="round" stroke-miterlimit="10" d="
			M653.832,413.433c-1.313,0.515-2.561,1.246-3.592,2.215c-0.521,0.507-1.011,1.104-1.186,1.824
			c-0.239,1.025,0.429,2.027,0.842,2.919c0.239,0.502,0.456,1.027,0.532,1.581c0.06,0.413,0.027,0.838-0.086,1.24
			c-0.245,0.868-0.738,1.645-1.242,2.384c-0.696,1.013-1.809,2.375-2.487,3.4c-0.315,0.48-0.616,0.982-0.822,1.519
			c-0.111,0.29-0.191,0.595-0.213,0.906c-0.023,0.313,0.011,0.63,0.082,0.936c0.21,0.921,0.759,1.801,0.858,2.75
			c0.109,0.937-0.343,1.818-0.8,2.605c-0.908,1.529-2.208,3.096-2.9,4.742c-0.209,0.501-0.369,1.031-0.419,1.573
			c-0.047,0.514,0.007,1.037,0.127,1.538c0.218,0.908,0.637,1.762,1.076,2.581c0.876,1.615,2.047,3.384,2.442,5.198
			c0.34,1.5,0.205,3.313,0.183,4.844c-0.005,1.167,0.05,2.403,0.641,3.44c0.527,0.909,1.378,1.576,2.211,2.192
			c1.363,1.01,3.033,1.978,3.913,3.469c0.344,0.589,0.526,1.261,0.632,1.932c0.188,1.165,0.138,2.435,0.314,3.601
			c0.089,0.539,0.24,1.109,0.635,1.508c0.485,0.475,1.185,0.618,1.832,0.724c1.545,0.228,3.217,0.201,4.652,0.89
			c0.625,0.299,1.166,0.752,1.64,1.253c1.133,1.187,2.006,2.836,3.114,4.044c0.322,0.342,0.684,0.66,1.111,0.862
			c0.859,0.404,1.845,0.209,2.729-0.007l1.457-0.384c0.787-0.196,1.606-0.35,2.419-0.265c0.66,0.069,1.297,0.288,1.901,0.557
			c1.031,0.46,2.2,1.19,3.208,1.704c0.877,0.444,1.81,0.832,2.794,0.939c1.951,0.207,4.041-0.685,5.877-1.243
			c1.096-0.332,2.247-0.648,3.402-0.524c0.819,0.091,1.594,0.415,2.328,0.776c1.17,0.565,2.422,1.384,3.763,1.356
			c0.623-0.014,1.229-0.21,1.797-0.456c2.419-1.098,4.596-2.99,7.272-3.459c2.812-0.48,5.725,0.619,8.51,0.846
			c0.909,0.069,1.852,0.043,2.713-0.283c1.388-0.538,2.357-1.755,3.22-2.915c0.764-1.046,1.788-2.626,2.667-3.548
			c0.479-0.514,1.026-0.972,1.65-1.3c1.119-0.604,2.437-0.846,3.643-1.217c0.739-0.233,1.491-0.546,2.024-1.128
			c0.407-0.444,0.677-0.997,0.902-1.551c0.497-1.249,0.804-2.647,1.436-3.84c0.284-0.539,0.651-1.042,1.12-1.435
			c1.141-0.954,2.711-1.408,4.073-1.954c0.979-0.394,1.993-0.841,2.715-1.637c0.774-0.87,1.08-2.037,1.326-3.148
			c0.265-1.191,0.466-2.734,1-3.827c0.218-0.458,0.528-0.87,0.893-1.222c0.781-0.76,1.902-1.362,2.761-2.028
			c0.577-0.442,1.109-0.964,1.485-1.591c0.383-0.634,0.635-1.343,0.845-2.051c0.475-1.617,0.765-3.56,1.383-5.13
			c0.257-0.646,0.588-1.278,1.064-1.791c1.04-1.137,2.699-1.681,4.076-2.291c0.869-0.385,1.747-0.852,2.334-1.621
			c0.408-0.519,0.693-1.128,0.909-1.749c0.458-1.294,0.816-3.655,1.102-5.017c0.498-2.359,1.202-5.286,1.389-7.671"/>
	</g>
</g>
<g id="_x32_D_x24_AG-OUTLINE">
	<g id="POLYLINE_00000135672802868291389080000003421695390806032816_">
		
			<path fill="none" stroke="#FB8604" stroke-width="3.5" stroke-linecap="round" stroke-linejoin="round" stroke-miterlimit="10" d="
			M231.555,378.371c0.137,14.671,1.407,37.312,1.87,52.016c0.171,7.4,0.229,15.139-0.516,22.497
			c-0.302,2.903-0.752,5.845-1.477,8.674c-0.608,2.395-1.439,4.777-2.397,7.055c-0.945,2.315-2.487,5.162-2.676,7.672
			c-0.098,1.115,0.096,2.253,0.575,3.265c0.292,0.629,0.708,1.198,1.177,1.707c0.55,0.606,1.244,1.177,1.777,1.798
			c0.548,0.629,0.982,1.357,1.287,2.133c0.417,1.044,0.608,2.173,0.754,3.283c0.306,2.19,0.354,5.04,0.851,7.195
			c0.191,0.73,0.503,1.527,1.205,1.9c0.393,0.21,0.85,0.249,1.288,0.255l21.952,0.002l0.181,0c0.211-0.003,0.439-0.005,0.647-0.028
			c0.356-0.035,0.715-0.12,1.027-0.301c0.386-0.22,0.672-0.583,0.856-0.982c0.222-0.481,0.342-1.006,0.429-1.526
			c0.145-0.9,0.182-1.828,0.167-2.739c-0.033-1.704-0.265-3.413-0.718-5.057c-0.436-1.606-1.099-3.159-1.863-4.635
			c-1.003-1.909-2.398-4.395-3.18-6.37c-0.721-1.775-1.264-3.655-1.664-5.529c-0.477-2.244-0.767-4.591-0.951-6.877
			c-0.498-6.169-0.517-15.47-0.631-21.739c-0.003-6.604-0.08-14.405,0.373-20.974c1.008-13.375,3.499-28.191,5.562-41.478
			c1.162-0.731,2.199-1.664,3.07-2.724c0.816-0.97,1.466-2.253,2.132-3.331c0.298-0.468,0.635-0.925,1.062-1.283
			c0.519-0.437,1.221-0.788,1.764-1.195c0.359-0.266,0.685-0.585,0.924-0.964c0.223-0.348,0.366-0.743,0.469-1.142
			c0.363-1.473,0.375-3.305,0.561-4.812c0.133-1.031,0.3-2.107,0.846-3.01c0.214-0.345,0.498-0.644,0.817-0.893
			c0.883-0.705,2.063-1.038,2.948-1.738c0.318-0.254,0.576-0.584,0.721-0.966c0.351-0.905,0.306-2.069,0.373-3.027
			c0.06-0.93,0.164-1.923,0.727-2.699c0.448-0.619,1.09-1.067,1.722-1.482c1.094-0.714,2.401-1.41,3.065-2.583
			c0.523-0.948,0.615-2.063,0.682-3.125c0.064-1.135,0.046-2.457,0.302-3.562c0.118-0.501,0.314-0.994,0.643-1.394
			c0.644-0.803,1.754-1.315,2.626-1.83c0.828-0.48,1.637-1.059,2.157-1.878c0.377-0.587,0.623-1.254,0.816-1.921
			c0.46-1.587,0.68-3.716,1.069-5.323c0.171-0.678,0.375-1.371,0.77-1.956c0.19-0.277,0.432-0.518,0.702-0.717
			c0.845-0.625,1.971-0.89,2.707-1.668c0.425-0.442,0.686-1.014,0.891-1.585c0.655-1.905,0.84-4.119,1.466-6.033
			c0.142-0.43,0.311-0.863,0.529-1.261c0.225-0.413,0.506-0.8,0.814-1.155c0.8-0.926,1.885-1.757,2.454-2.862
			c0.57-1.089,0.652-2.355,0.729-3.56c0.126-2.007-0.001-4.524,0.732-6.413c0.302-0.792,0.847-1.453,1.506-1.977
			c0.838-0.681,1.933-1.235,2.806-1.87c0.518-0.377,1.006-0.822,1.327-1.384c0.287-0.503,0.439-1.072,0.534-1.64
			c0.204-1.253,0.171-2.727,0.299-3.99c0.088-0.884,0.246-1.78,0.624-2.59c0.717-1.533,2.245-2.684,3.464-3.809
			c0.932-0.859,1.869-1.824,2.244-3.066c0.253-0.849,0.241-1.754,0.156-2.627c-0.155-1.605-0.678-3.446-0.817-5.053
			c-0.038-0.504-0.043-1.02,0.073-1.514c0.132-0.572,0.468-1.073,0.866-1.496c0.505-0.541,1.177-1.07,1.656-1.634
			c0.334-0.386,0.614-0.824,0.792-1.304c0.219-0.587,0.319-1.218,0.379-1.841c0.141-1.526,0.047-3.525,0.124-5.058
			c0.077-1.467,0.256-3.008,1.06-4.273c0.789-1.262,2.053-2.184,3.116-3.198c0.481-0.469,0.952-0.988,1.189-1.627
			c0.315-0.855,0.087-1.789-0.168-2.629c-0.317-1.013-0.785-2.097-1.042-3.128c-0.124-0.505-0.208-1.03-0.171-1.551
			c0.041-0.603,0.268-1.18,0.567-1.7c0.565-0.989,1.499-1.996,2.128-2.943c0.414-0.615,0.771-1.284,0.95-2.007
			c0.415-1.686,0.045-3.641-0.11-5.344c-0.077-0.888-0.144-1.804,0.064-2.679c0.093-0.387,0.261-0.754,0.479-1.086
			c0.75-1.151,2.055-1.965,2.601-3.255c0.359-0.855,0.346-1.812,0.308-2.723c-0.058-1.16-0.255-2.652-0.144-3.799
			c0.038-0.386,0.111-0.773,0.254-1.134c0.116-0.294,0.281-0.568,0.474-0.817c0.721-0.939,1.833-1.576,2.52-2.544
			c0.466-0.638,0.6-1.41,0.615-2.183c0.039-1.485-0.33-3.095-0.142-4.576c0.056-0.417,0.183-0.827,0.389-1.195
			c0.359-0.663,1.02-1.293,1.533-1.844c0.582-0.616,1.097-1.314,1.336-2.138c0.245-0.799,0.325-1.65,0.379-2.481
			c0.126-2.052,0.021-4.314,0.671-6.287c0.276-0.838,0.683-1.638,1.116-2.405c0.519-0.918,1.251-2.071,1.618-3.061
			c0.234-0.608,0.347-1.263,0.324-1.915c-0.026-1.091-0.319-2.301-0.294-3.394c0.01-0.656,0.137-1.316,0.421-1.91
			c0.279-0.591,0.673-1.125,1.089-1.626c1.018-1.214,2.308-2.349,3.37-3.524c0.548-0.618,1.096-1.275,1.391-2.056
			c0.397-1.036,0.041-2.17-0.18-3.204c-0.153-0.714-0.233-1.461-0.085-2.183c0.103-0.519,0.296-1.022,0.513-1.504
			c0.545-1.208,1.539-2.769,2.119-3.963c0.356-0.745,0.693-1.537,0.721-2.373c0.012-0.433-0.091-0.865-0.267-1.259
			c-0.541-1.202-1.641-2.164-2.234-3.337c-0.304-0.575-0.434-1.227-0.442-1.875c5.885-1.943,12.086-3.091,18.245-3.701
			c7.109-0.75,14.392-0.601,21.505,0.062c2.975,0.247,12.325,1.383,15.146,1.366c0.598-0.012,1.203-0.072,1.781-0.231
			c1.436-0.391,2.605-1.395,3.624-2.438c1.02-1.063,1.913-2.257,2.658-3.527c0.712-1.225,1.302-2.542,1.614-3.929
			c0.754,0.106,1.533,0.125,2.279-0.047c0.499-0.114,0.977-0.318,1.402-0.604c0.865-0.579,1.49-1.446,1.999-2.339
			c0.855-1.521,1.442-3.209,1.97-4.868c0.462-1.526,0.962-3.192,1.311-4.747c0.265-1.22,0.415-2.484,0.286-3.731
			c-0.155-1.593-0.773-3.104-1.511-4.51c-1.183-2.22-2.71-4.272-4.356-6.168c-1.621-1.84-4.16-4.37-5.76-6.22
			c-2.047-2.317-5.098-5.924-7.234-8.113c-1.715-1.8-3.667-3.659-5.529-5.308c-3.175-2.818-6.865-5.751-10.229-8.348
			c-1.974-1.503-8.722-6.557-10.56-8.141c-2.254-1.887-4.365-4.017-5.955-6.504c-1.106-1.684-2.549-4.15-3.857-5.646
			c-0.836-0.989-1.803-1.881-2.864-2.625c-2.307-1.619-4.979-2.666-7.692-3.383c-4.79-1.246-9.816-1.489-14.742-1.224
			c0.444-1.143,0.796-2.34,0.943-3.56c0.085-0.748,0.099-1.521-0.084-2.257c-0.1-0.394-0.263-0.778-0.515-1.098
			c-0.21-0.27-0.484-0.489-0.792-0.638l-0.041-0.02l-0.042-0.019l-0.043-0.018c-0.86-0.348-1.821-0.304-2.726-0.194
			c-2.14,0.302-4.197,1.08-6.173,1.932c-3.176,1.405-6.256,3.164-9.094,5.165c-2.197,1.56-4.28,3.348-5.933,5.487
			c-2.453,0.836-4.904,1.829-7.205,3.02c-2.513,1.285-5.016,2.931-7.359,4.508c-0.487-0.492-1.119-0.879-1.819-0.942
			c-0.465-0.046-0.935,0.03-1.383,0.154c-0.994,0.269-2.32,0.972-3.262,1.42c-1.695,0.857-3.719,1.342-5.363,2.226
			c-0.494,0.274-0.961,0.612-1.334,1.04c-1.013,1.152-1.468,2.78-2.723,3.726c-0.853,0.674-1.922,1.183-2.781,1.849
			c-1.697,1.26-2.38,3.42-3.593,5.075c-0.341,0.475-0.734,0.922-1.182,1.3c-0.838,0.717-1.966,1.326-2.902,1.909
			c-0.72,0.452-1.436,0.951-1.981,1.613c-0.934,1.151-1.289,2.662-1.849,4.007c-0.269,0.654-0.591,1.3-1.043,1.848
			c-0.769,0.941-1.956,1.67-2.918,2.399c-0.594,0.454-1.181,0.956-1.578,1.598c-0.53,0.858-0.704,1.959-0.935,2.926
			c-0.187,0.789-0.425,1.596-0.916,2.253c-0.342,0.458-0.789,0.831-1.258,1.154c-0.933,0.643-2.232,1.247-3.228,1.781
			c-0.779,0.419-1.555,0.879-2.222,1.464c-0.823,0.706-1.583,1.691-2.328,2.478c-0.481,0.498-1.031,0.986-1.719,1.156
			c-0.475,0.116-0.973,0.077-1.451-0.001c-1.128-0.193-2.294-0.617-3.44-0.696c-0.382-0.027-0.77-0.015-1.146,0.055
			c-0.585,0.107-1.148,0.332-1.69,0.571c-1.101,0.506-2.36,1.126-3.512,1.479c-1.188,0.365-2.441,0.62-3.689,0.608
			c-0.819-0.017-1.644-0.161-2.443-0.337c-1.24-0.278-2.555-0.683-3.764-1.078c-0.424-0.979-0.878-2.025-1.741-2.698
			c-0.623-0.475-1.398-0.687-2.157-0.826c-1.734-0.304-3.668-0.3-5.305-1.004c-1.907-0.82-3.382-2.589-4.896-3.955
			c-0.793-0.715-1.651-1.407-2.663-1.781c-0.738-0.273-1.538-0.335-2.319-0.318c-1.773,0.025-3.737,0.539-5.473,0.019
			c-0.618-0.187-1.169-0.547-1.654-0.967c-1.424-1.223-2.485-3.04-4.041-4.115c-0.394-0.266-0.833-0.476-1.3-0.571
			c-0.654-0.136-1.333-0.079-1.986,0.037c-1.527,0.276-3.223,0.962-4.764,1.166c-0.846,0.118-1.732,0.075-2.515-0.294
			c-1.32-0.605-2.388-1.808-3.436-2.783c-0.811-0.756-1.684-1.527-2.762-1.863c-0.696-0.214-1.443-0.203-2.157-0.1
			c-1.213,0.163-2.843,0.746-4.016,1.084c-1.037,0.295-2.117,0.562-3.203,0.49c-1.482-0.101-2.838-0.903-4.134-1.564
			c-0.734-0.371-1.498-0.731-2.313-0.88c-0.802-0.159-1.63-0.029-2.398,0.225c-1.489,0.485-2.955,1.386-4.424,1.923
			c-0.573,0.206-1.176,0.369-1.789,0.375c-0.413,0.004-0.825-0.074-1.217-0.202c-0.907-0.291-1.818-0.878-2.676-1.284
			c-0.628-0.298-1.306-0.539-2.009-0.532c-0.499,0.004-0.99,0.134-1.453,0.312c-0.714,0.276-1.39,0.67-2.041,1.07
			c-1.175,0.731-2.665,1.774-3.924,2.293c-0.572,0.239-1.184,0.405-1.807,0.413c-1.193,0.029-2.404-0.448-3.547-0.737
			c-0.61-0.151-1.249-0.251-1.877-0.159c-0.559,0.081-1.084,0.318-1.568,0.602c-2.305,1.413-4.115,3.717-6.741,4.586
			c-2.422,0.781-5.102,0.163-7.587,0.189c-0.672,0.012-1.356,0.075-1.996,0.29c-0.784,0.262-1.462,0.763-2.067,1.315
			c-1.016,0.937-2.032,2.139-3.176,2.924c-0.825,0.587-1.777,0.976-2.742,1.265c-2.083,0.631-4.558,0.932-6.623,1.625
			c-0.91,0.31-1.811,0.716-2.546,1.346c-1.501,1.281-2.169,3.321-3.217,4.936c-0.378,0.577-0.83,1.124-1.408,1.511
			c-0.473,0.317-1.012,0.527-1.557,0.685c-0.891,0.261-2.125,0.445-3.024,0.622c-1.305,0.26-2.663,0.629-3.681,1.53
			c-0.746,0.661-1.274,1.532-1.711,2.418c-1.164,2.362-1.811,5.367-3.158,7.639c-0.45,0.759-1.053,1.426-1.774,1.936
			c-0.93,0.68-2.197,1.203-3.208,1.754c-0.541,0.3-1.07,0.649-1.487,1.11c-0.476,0.525-0.783,1.18-1.025,1.84
			c-0.696,1.954-0.965,4.206-2.192,5.932c-1.546,2.187-4.109,3.505-5.808,5.551c-0.517,0.622-0.906,1.346-1.196,2.099
			c-0.678,1.719-0.897,3.715-1.846,5.323c-0.69,1.154-1.823,2.135-2.686,3.155c-0.566,0.663-1.066,1.4-1.373,2.22
			c-0.478,1.282-0.499,2.684-0.472,4.037c0.046,1.78,0.307,4.031,0.313,5.812c-0.001,0.792-0.04,1.601-0.226,2.374
			c-0.112,0.467-0.293,0.919-0.523,1.339c-0.386,0.713-0.936,1.363-1.415,2c-0.315,0.422-0.614,0.869-0.825,1.354
			c-0.155,0.35-0.259,0.723-0.321,1.1c-0.124,0.757-0.109,1.538-0.065,2.301c0.089,1.469,0.396,3.549,0.406,5.017
			c0.012,0.794-0.055,1.599-0.239,2.372c-0.247,1.094-0.759,2.303-1.152,3.357c-0.324,0.881-0.598,1.799-0.667,2.739
			c-0.131,1.823,0.333,3.753,0.45,5.567c0.045,0.752,0.042,1.524-0.166,2.254c-0.395,1.405-1.562,2.458-2.19,3.746
			c-0.478,0.955-0.482,2.055-0.431,3.098c0.08,1.446,0.265,3.044,0.009,4.471c-0.279,1.604-1.042,3.237-1.479,4.8
			c-0.255,0.911-0.418,1.87-0.302,2.816c0.089,0.739,0.322,1.457,0.593,2.147c0.548,1.38,1.371,2.934,1.791,4.359
			c0.239,0.798,0.384,1.634,0.357,2.468c-0.04,1.311-0.411,2.596-0.814,3.836c-0.79,2.427-1.962,5.045-1.779,7.643
			c0.106,1.399,0.589,2.744,1.127,4.029c0.69,1.684,1.763,3.646,1.913,5.474c0.065,0.812-0.093,1.627-0.34,2.399
			c-0.41,1.286-1.122,2.66-1.446,3.972c-0.161,0.634-0.237,1.293-0.203,1.947c0.075,1.691,0.745,3.6,1.185,5.232
			c0.276,1.036,0.523,2.104,0.508,3.182c-0.01,1.27-0.468,2.648-0.817,3.864c-0.255,0.904-0.466,1.843-0.427,2.788
			c0.088,1.801,1.028,3.595,1.643,5.264c0.369,0.997,0.713,2.044,0.685,3.12c-0.018,0.614-0.189,1.216-0.423,1.781
			c-0.526,1.301-1.44,2.501-1.687,3.905c-0.095,0.542-0.038,1.101,0.113,1.628c0.439,1.504,1.471,2.954,2.152,4.354
			c0.344,0.701,0.651,1.439,0.763,2.216c0.141,0.98-0.057,1.972-0.308,2.918c-0.348,1.298-0.819,2.681-0.8,4.036
			c0.004,0.718,0.157,1.43,0.374,2.112c0.478,1.503,1.391,3.177,2.056,4.612c0.484,1.077,0.985,2.21,0.989,3.411
			c0.008,0.908-0.322,1.862-0.57,2.728c-0.168,0.604-0.298,1.239-0.202,1.866c0.081,0.538,0.293,1.05,0.531,1.536
			c0.535,1.083,1.302,2.19,1.731,3.322c0.485,1.198,0.382,2.58,0.347,3.846c-0.016,0.73,0.003,1.474,0.161,2.189
			c0.228,1.049,0.774,2.001,1.334,2.905c1.074,1.751,2.548,3.553,2.945,5.61c0.272,1.439-0.134,3.061-0.382,4.482
			c-0.137,0.809-0.244,1.649-0.098,2.464c0.101,0.56,0.33,1.092,0.601,1.59c0.689,1.246,1.673,2.431,2.238,3.746
			c0.616,1.349,0.644,2.855,0.575,4.311c-0.051,1.165-0.225,2.844-0.109,3.99c0.041,0.41,0.117,0.824,0.274,1.207
			c0.258,0.655,0.817,1.135,1.425,1.46c1.214,0.643,2.689,0.97,3.931,1.555c1.209,15.03,6.084,69.337,6.884,83.361
			c0.074,1.645,0.116,3.427,0.067,5.072c-0.041,1.335-0.147,2.697-0.364,4.016c-0.362,2.292-1.146,4.514-2.101,6.622l-2.033,4.413
			c-0.606,1.366-1.197,2.788-1.568,4.238c-0.432,1.625-0.602,3.596-0.791,5.273c-0.12,1.002-0.293,2.018-0.62,2.975
			c-0.595,1.755-1.682,3.728-2.283,5.48c-0.686,1.917-1.004,3.966-1.029,5.998c-0.005,1.365,0.1,2.761,0.549,4.058
			c0.195,0.549,0.473,1.081,0.884,1.499c0.389,0.402,0.89,0.682,1.419,0.854c0.599,0.197,1.234,0.28,1.861,0.328
			c0.654,0.114,18.933,0.044,20.006,0.057c0.608-0.016,1.239-0.085,1.782-0.377c0.741-0.388,1.183-1.159,1.423-1.935
			c0.486-1.569,0.61-4.484,0.811-6.131c0.219-1.788,0.464-3.645,1.316-5.257c0.521-0.974,1.285-1.8,2.109-2.527l1.72-1.467
			c0.653-0.577,1.274-1.215,1.714-1.973c0.565-0.974,0.854-2.089,0.994-3.2c0.134-1.106,0.122-2.234-0.024-3.338
			c-0.136-1.047-0.42-2.084-0.919-3.018c-0.295-0.558-0.728-1.336-0.959-1.91c-0.23-0.555-0.408-1.139-0.541-1.725
			c-0.489-2.198-0.488-4.539-0.529-6.784c-0.017-4.729,0.035-11.793-0.263-16.454c-0.222-3.798-0.701-7.801-1.265-11.562
			l-3.022-18.289c-0.869-5.578-1.066-11.324-0.934-16.961c0.268-11.845,1.704-25.47,2.939-37.31c0.487-0.382,0.998-0.775,1.339-1.3
			c0.34-0.523,0.5-1.142,0.639-1.744c0.262-1.183,0.455-2.54,1.114-3.576c0.612-0.973,1.699-1.757,2.568-2.493
			c0.633-0.545,1.303-1.151,1.541-1.98c0.135-0.466,0.142-0.961,0.108-1.442c-0.118-1.363-0.476-2.868-0.39-4.241
			c0.112-2.014,0.872-4.023,1.51-5.922c1.907,1.968,4.349,3.914,7.241,3.766c1.978-0.065,3.978-0.792,5.959-0.816
			c1.477-0.034,2.914,0.612,4.266,1.137c0.696,0.265,1.418,0.507,2.162,0.587c0.748,0.081,1.511,0.001,2.253-0.104
			c1.068-0.153,2.26-0.392,3.337-0.323c0.572,0.032,1.136,0.169,1.675,0.36c1.515,0.531,2.964,1.497,4.567,1.757
			c0.778,0.123,1.577,0.049,2.353-0.062c1.179-0.172,2.468-0.458,3.658-0.321c0.753,0.086,1.477,0.351,2.172,0.643
			c1.327,0.556,2.769,1.354,4.247,1.265c1.708-0.102,3.274-1.028,4.863-1.574c0.433-0.15,0.884-0.26,1.337-0.322
			c0.706-0.108,1.804-0.102,2.524-0.127c1.271-0.04,2.548-0.263,3.787-0.541c1.753-0.399,3.526-0.934,5.216-1.544
			c0.214,0.847,0.346,1.741,0.181,2.608c-0.137,0.727-0.453,1.41-0.808,2.054c-0.776,1.405-1.946,2.876-2.715,4.285
			c-0.337,0.629-0.635,1.304-0.705,2.021c-0.073,0.72,0.081,1.442,0.282,2.131l0.381,1.253c0.197,0.676,0.348,1.378,0.349,2.084
			c0,0.89-0.204,1.776-0.427,2.634c-0.341,1.335-0.889,2.852-0.943,4.228c-0.011,0.357,0.015,0.721,0.113,1.066
			c0.079,0.283,0.212,0.551,0.377,0.793c0.966,1.377,2.729,2.113,3.571,3.622c0.815,1.512,0.578,3.398,0.89,5.038
			c0.1,0.513,0.259,1.04,0.611,1.44c0.253,0.287,0.591,0.488,0.947,0.623c0.543,0.204,1.128,0.275,1.705,0.301
			c-0.841,9.755-2.633,22.901-2.335,32.551c0.089,2.444,0.379,5.046,0.728,7.471c1.355,9.477,5.192,26.946,6.556,36.438
			c0.298,2.154,0.58,4.507,0.696,6.673c0.115,2.179,0.106,4.405-0.266,6.56c-0.265,1.558-0.748,3.088-1.394,4.53
			c-0.8,1.854-2.066,3.723-2.875,5.574c-0.568,1.345-0.994,2.801-0.914,4.274c0.042,0.711,0.241,1.419,0.612,2.03
			c0.471,0.786,1.197,1.403,2.028,1.783l0.801,0.375c0.481,0.223,0.92,0.548,1.234,0.979c0.306,0.41,0.517,0.886,0.675,1.371
			c0.293,0.905,0.411,1.878,0.522,2.82c0.255,2.156,0.356,5.055,1.032,7.107c0.158,0.451,0.371,0.891,0.677,1.26
			c0.305,0.372,0.71,0.657,1.159,0.828c0.736,0.282,1.543,0.313,2.322,0.33l21.083,0.004c0.345-0.001,0.778,0,1.119-0.031
			c0.39-0.034,0.783-0.108,1.139-0.274c0.393-0.18,0.726-0.474,0.979-0.822c0.563-0.786,0.864-1.732,1.077-2.667
			c0.345-1.585,0.363-3.255-0.021-4.834c-0.211-0.857-0.537-1.699-1.042-2.429c-0.327-0.473-0.74-0.887-1.209-1.221
			c-0.726-0.52-1.567-0.868-2.402-1.174c-1.671-0.598-3.506-1.187-4.836-2.407c-1.292-1.189-2.069-2.829-2.63-4.468
			c-0.482-1.427-0.781-2.932-0.973-4.425c-1.15-9.313-2.987-21.032-3.148-30.35c-0.227-8.293,0.405-16.688,1.996-24.834
			c2.657-12.432,5.421-26.958,7.205-39.501c1.332-0.546,2.57-1.377,3.487-2.496c0.535-0.646,0.924-1.405,1.193-2.197
			c0.612-1.737,0.691-3.676,1.416-5.377c0.183-0.416,0.423-0.81,0.724-1.151c0.494-0.565,1.117-1.006,1.744-1.409
			c0.943-0.604,2.057-1.213,2.848-2.007c0.516-0.514,0.913-1.138,1.245-1.782c0.836-1.642,1.397-3.543,2.486-5.047
			c1.354-1.903,3.477-3.315,4.788-5.252c0.758,1.606,1.393,3.299,1.784,5.033c0.364,1.497,0.46,3.653,0.583,5.203
			c0.106,1.334,0.427,2.851,0.41,4.191c0.002,0.892-0.168,1.778-0.41,2.634l-0.654,2.243c-0.285,1.058-0.515,2.168-0.363,3.266
			c0.198,1.409,0.958,2.797,2.194,3.546C228.523,378.54,230.134,378.303,231.555,378.371z"/>
	</g>
	<g id="POLYLINE_00000034802804258337906750000001474021382848088448_">
		
			<path fill="none" stroke="#FB8604" stroke-width="3.5" stroke-linecap="round" stroke-linejoin="round" stroke-miterlimit="10" d="
			M754.351,497.821l71.763-0.003l0.557-0.009c0.452-0.015,0.993-0.031,1.439-0.066c0.986-0.071,2.002-0.21,2.973-0.396
			c1.465-0.282,2.95-0.686,4.374-1.129c0.939-0.297,1.925-0.611,2.827-1.005c0.724-0.327,1.477-0.683,2.016-1.283
			c0.318-0.356,0.581-0.825,0.952-1.133c0.39-0.332,0.887-0.502,1.364-0.667c1.292-0.437,2.781-0.77,3.749-1.796
			c0.383-0.417,0.639-0.935,0.833-1.463c0.362-0.979,0.57-2.21,0.92-3.194c0.163-0.457,0.37-0.908,0.673-1.289
			c0.413-0.518,0.986-0.88,1.56-1.197c1.077-0.586,2.37-1.143,2.954-2.29c0.235-0.442,0.383-0.929,0.495-1.415
			c0.257-1.141,0.354-2.482,0.511-3.642c0.164-1.191,0.378-2.416,0.962-3.482c0.438-0.793,1.076-1.458,1.739-2.067
			c0.545-0.496,1.367-1.194,1.842-1.736c0.334-0.379,0.63-0.806,0.786-1.29c0.191-0.589,0.161-1.224,0.082-1.831
			c-0.124-0.985-0.463-2.116-0.477-3.111c-0.002-0.317,0.03-0.639,0.137-0.939c0.094-0.265,0.249-0.506,0.43-0.72
			c0.683-0.783,1.688-1.317,2.426-2.043c0.289-0.279,0.551-0.591,0.747-0.942c0.173-0.308,0.289-0.647,0.366-0.99
			c0.328-1.533,0.064-3.326,0.018-4.882c-0.024-0.796-0.028-1.617,0.168-2.394c0.208-0.862,0.78-1.532,1.43-2.108
			c0.597-0.55,1.366-1.093,1.712-1.845c0.202-0.443,0.25-0.94,0.257-1.422c0.009-1.162-0.215-2.394,0.056-3.539
			c0.142-0.613,0.459-1.171,0.823-1.68c0.742-1.033,1.778-2.028,2.405-3.14c0.209-0.369,0.381-0.764,0.487-1.176
			c0.138-0.538,0.173-1.1,0.163-1.654c-0.024-1.375-0.383-3.039-0.416-4.414c-0.014-0.621,0.031-1.257,0.234-1.848
			c0.323-0.959,1.019-1.791,1.607-2.6c0.366-0.511,0.725-1.057,0.864-1.678c0.087-0.391,0.068-0.799,0.005-1.192
			c-0.113-0.692-0.4-1.514-0.599-2.191c-0.202-0.698-0.374-1.425-0.334-2.157c0.094-1.502,1.106-2.826,1.732-4.146
			c0.288-0.604,0.543-1.259,0.513-1.939c-0.034-0.686-0.354-1.319-0.683-1.908c-0.511-0.925-1.231-1.908-1.304-2.99
			c-0.037-0.538,0.119-1.068,0.33-1.557c0.583-1.325,1.563-2.512,2.13-3.845c0.176-0.419,0.312-0.863,0.341-1.319
			c0.02-0.305-0.015-0.613-0.09-0.909c-0.347-1.307-1.316-2.429-1.964-3.592c-0.275-0.492-0.522-1.017-0.606-1.579
			c-0.104-0.654,0.09-1.313,0.372-1.9c0.5-1.048,1.391-2.161,1.975-3.163c0.363-0.62,0.686-1.286,0.796-2.003
			c0.238-1.624-0.612-3.288-1.148-4.777c-0.28-0.779-0.542-1.597-0.5-2.434c0.074-1.461,0.925-2.809,1.19-4.23
			c0.28-1.305-0.099-2.622-0.516-3.854c-0.418-1.219-1.059-2.811-1.283-4.068c-0.131-0.706-0.164-1.442-0.002-2.146
			c0.271-1.259,1.121-2.526,1.75-3.637c0.389-0.696,0.761-1.432,0.872-2.23c0.102-0.735-0.015-1.484-0.171-2.203
			c-0.292-1.293-0.718-2.647-0.687-3.982c0.011-0.732,0.164-1.459,0.366-2.16c0.516-1.794,1.471-3.654,1.921-5.468
			c0.117-0.491,0.199-0.998,0.189-1.504c-0.008-0.395-0.077-0.789-0.183-1.168c-0.244-0.873-0.707-1.726-1.012-2.577
			c-0.203-0.562-0.341-1.158-0.327-1.759c0.041-1.296,0.632-2.638,1.023-3.861c0.159-0.5,0.311-1.017,0.365-1.54
			c0.031-0.309,0.026-0.628-0.062-0.928c-0.107-0.375-0.36-0.69-0.654-0.938c-0.566-0.474-1.272-0.778-1.939-1.082
			c6.261-4.261,13.206-7.57,20.306-10.175c4.736-1.707,9.674-3.063,14.671-3.72c3.476-0.464,7.071-0.498,10.573-0.384
			c3.721,0.099,9.987,0.679,13.616,0.188c1.058-0.142,2.114-0.4,3.076-0.872c0.945-0.457,1.787-1.121,2.481-1.907
			c1.017-1.16,1.786-2.525,2.461-3.905c0.863-1.823,1.532-3.78,1.677-5.803c0.112-1.543-0.106-3.1-0.48-4.596
			c0.598-0.04,1.202-0.179,1.72-0.489c0.503-0.297,0.905-0.74,1.232-1.22c0.851-1.278,1.298-2.784,1.661-4.263
			c0.471-2.052,0.778-4.184,0.9-6.286c0.156-2.865-0.216-5.907-1.889-8.315c-0.826-1.204-1.899-2.229-3.034-3.139
			c-2.907-2.359-8.728-5.391-11.985-7.329c-9.571-5.685-21.228-14.073-30.893-19.552c-4.995-2.815-10.228-5.428-15.738-7.061
			c-6.207-1.894-14.019-2.382-20.486-3.058c-5.074-0.485-11.742-1.884-16.789-2.842c-6.12-1.072-12.569-1.922-18.655-0.239
			c-4.736,1.338-8.887,4.194-12.64,7.3c-2.608,2.13-6.051,5.514-8.633,7.695c-1.946,1.661-4.724,3.411-6.794,4.923
			c-0.339-0.462-0.845-0.785-1.388-0.955c-0.503-0.157-1.055-0.188-1.56-0.027c-0.512,0.155-1.024,0.502-1.485,0.771
			c-0.391,0.233-0.807,0.436-1.236,0.587c-1.485,0.527-3.196,0.838-4.321,2.03c-1.372,1.435-2.018,3.562-3.707,4.702
			c-1.026,0.694-2.334,1.018-3.445,1.542c-0.386,0.185-0.765,0.406-1.07,0.709c-0.408,0.405-0.651,0.941-0.851,1.471
			c-0.293,0.797-0.572,1.721-1.072,2.417c-0.415,0.586-0.977,1.054-1.54,1.493c-1.147,0.889-2.517,1.751-3.292,3.008
			c-0.853,1.406-0.783,3.259-0.906,4.848c-0.059,0.722-0.13,1.47-0.435,2.136c-0.22,0.475-0.576,0.873-0.951,1.233
			c-0.62,0.585-1.333,1.192-1.67,1.991c-0.189,0.431-0.282,0.9-0.341,1.364c-0.173,1.456-0.036,3.177-0.114,4.641
			c-0.045,0.762-0.121,1.548-0.438,2.25c-0.145,0.314-0.347,0.601-0.581,0.855c-0.645,0.713-1.601,1.201-2.161,1.994
			c-0.345,0.485-0.479,1.083-0.556,1.664c-0.178,1.395-0.064,2.881-0.525,4.228c-0.704,2.039-2.887,3.043-3.958,4.837
			c-0.377,0.638-0.509,1.386-0.584,2.114l-0.109,1.18c-0.072,0.67-0.183,1.368-0.558,1.943c-0.471,0.704-1.262,1.102-2,1.469
			c-1.453,0.705-3.19,1.339-4.086,2.767c-0.813,1.283-1.041,2.898-1.489,4.326c-0.146,0.449-0.313,0.907-0.606,1.284
			c-0.148,0.19-0.339,0.347-0.558,0.447c-0.449,0.206-0.957,0.219-1.443,0.222c-0.816-0.004-1.752-0.058-2.546,0.13
			c-0.505,0.11-0.984,0.325-1.428,0.589c-1.294,0.764-2.531,2.059-3.75,2.93c-0.335,0.235-0.691,0.457-1.076,0.6
			c-0.283,0.107-0.589,0.159-0.892,0.135c-0.426-0.031-0.833-0.184-1.221-0.354c-0.792-0.353-1.661-0.84-2.557-0.695
			c-0.951,0.138-1.913,0.703-2.775,1.107c-0.575,0.271-1.174,0.538-1.81,0.617c-0.594,0.074-1.189-0.071-1.751-0.255
			c-0.789-0.259-1.618-0.617-2.463-0.554c-0.485,0.035-0.955,0.187-1.406,0.361c-1.143,0.441-2.316,1.139-3.553,1.262
			c-0.575,0.059-1.153-0.058-1.694-0.247c-1.09-0.376-2.145-1.054-3.26-1.36c-0.333-0.09-0.68-0.144-1.027-0.134
			c-0.387,0.011-0.77,0.098-1.137,0.218c-0.885,0.292-1.809,0.823-2.669,1.181c-0.602,0.251-1.239,0.456-1.896,0.475
			c-1.356,0.026-2.679-0.633-3.931-1.082c-1.124-0.416-2.332-0.746-3.527-0.455c-1.411,0.323-2.738,1.181-4.046,1.775
			c-0.507,0.229-1.035,0.436-1.585,0.532c-0.894,0.171-1.793-0.105-2.607-0.462c-0.952-0.407-1.947-0.985-2.983-1.115
			c-1.226-0.147-2.457,0.345-3.611,0.701c-0.818,0.259-1.662,0.503-2.521,0.56c-0.483,0.035-0.972,0.001-1.449-0.079
			c-2.375-0.407-4.588-1.776-6.982-2.099c-0.902-0.119-1.822-0.025-2.712,0.139c-1.019,0.184-2.098,0.486-3.133,0.559
			c-0.462,0.032-0.932,0.011-1.384-0.094c-0.994-0.224-2.008-0.825-2.923-1.26c-0.777-0.374-1.601-0.694-2.464-0.783
			c-0.778-0.081-1.569,0.006-2.338,0.133c-1.668,0.276-3.493,0.86-5.192,0.892c-0.513,0.007-1.032-0.053-1.523-0.207
			c-0.875-0.26-1.767-0.832-2.56-1.273c-0.713-0.398-1.475-0.753-2.291-0.863c-0.649-0.091-1.312-0.024-1.954,0.092
			c-1.329,0.242-2.925,0.816-4.223,1.182c-1.039,0.283-2.129,0.576-3.213,0.433c-1.111-0.153-2.006-0.943-2.875-1.587
			c-0.57-0.422-1.191-0.808-1.886-0.979c-0.526-0.132-1.077-0.14-1.615-0.102c-0.919,0.067-1.869,0.282-2.766,0.492
			c-1.315,0.309-3.031,0.788-4.369,0.888c-0.516,0.04-1.042,0.037-1.552-0.065c-0.992-0.183-1.932-0.795-2.794-1.294
			c-0.435-0.246-0.89-0.476-1.377-0.595c-0.366-0.092-0.749-0.111-1.123-0.067c-0.542,0.061-1.074,0.222-1.586,0.406
			c-1.627,0.582-3.303,1.538-5.02,1.829c-0.919,0.162-1.861,0.005-2.742-0.275c-1.353-0.418-2.786-1.135-4.237-0.946
			c-0.513,0.063-1.016,0.215-1.499,0.397c-1.078,0.411-2.203,1.035-3.254,1.51c-1.034,0.466-2.144,0.878-3.295,0.838
			c-1.36-0.033-2.719-0.569-4.032-0.876c-0.653-0.151-1.333-0.252-2.003-0.176c-1.033,0.121-1.961,0.656-2.829,1.196
			c-1.507,0.945-3.078,2.204-4.916,2.296c-2.099,0.125-4.229-0.69-6.331-0.465c-1.149,0.115-2.25,0.539-3.299,1.004
			c-1.76,0.778-3.598,1.852-5.486,2.27c-0.723,0.161-1.474,0.204-2.212,0.174c-1.633-0.062-3.536-0.495-5.169-0.531
			c-0.95-0.028-1.91,0.073-2.821,0.347c-2.422,0.712-4.908,2.394-7.219,3.388c-0.918,0.395-1.883,0.725-2.883,0.818
			c-1.983,0.217-4.053-0.507-6.026-0.379c-1.009,0.061-1.923,0.46-2.772,0.989c-1.227,0.754-2.497,1.852-3.724,2.607
			c-0.561,0.344-1.158,0.651-1.794,0.831c-1.234,0.355-2.581,0.249-3.849,0.21c-1.082-0.036-2.2-0.021-3.247,0.284
			c-2.139,0.645-4.026,2.233-5.839,3.49c-1.37,0.959-2.816,1.933-4.461,2.335c-1.885,0.485-3.943,0.289-5.86,0.532
			c-1.378,0.164-2.7,0.661-3.913,1.323c-1.614,0.879-3.084,2.031-4.448,3.257c-0.402-0.591-0.873-1.196-1.556-1.47
			c-0.486-0.199-1.019-0.249-1.539-0.257c-1.322-0.008-2.744,0.244-4.063,0.092c-1.093-0.12-2.175-0.518-3.247-0.744
			c-0.537-0.109-1.098-0.173-1.641-0.068c-0.664,0.123-1.231,0.529-1.731,0.963c-1.333,1.174-2.473,2.731-4.131,3.474
			c-0.797,0.353-1.673,0.495-2.533,0.591c-1.099,0.133-2.543,0.143-3.567,0.574c-0.389,0.162-0.744,0.414-0.999,0.752
			c-0.32,0.415-0.52,0.91-0.689,1.403c-0.372,1.118-0.627,2.402-1.178,3.449c-0.201,0.385-0.446,0.75-0.745,1.066
			c-0.35,0.369-0.768,0.672-1.206,0.928c-1.407,0.827-3.484,1.362-5.033,1.885c-1.05,0.359-2.122,0.749-3.022,1.412
			c-0.383,0.285-0.721,0.632-1.01,1.011c-0.645,0.835-1.103,1.922-1.637,2.829c-0.26,0.437-0.558,0.861-0.933,1.208
			c-0.29,0.272-0.631,0.487-0.989,0.657c-2.29,1.063-5.47,0.947-6.934,3.326c-0.471,0.744-0.767,1.589-1.003,2.432
			c-0.595,2.112-0.801,4.58-1.568,6.642c-0.197,0.519-0.461,1.017-0.78,1.472c-0.433,0.635-1.107,1.323-1.616,1.901
			c-0.38,0.435-0.741,0.906-0.974,1.438c-0.417,0.951-0.379,2.027-0.339,3.044c0.078,1.835,0.415,3.989-0.351,5.721
			c-0.398,0.883-1.055,1.62-1.729,2.303c-0.858,0.87-1.898,1.759-2.521,2.818c-0.397,0.66-0.561,1.433-0.582,2.197
			c-0.038,1.063,0.172,2.377,0.284,3.44c0.087,0.877,0.138,1.779-0.044,2.648c-0.432,2.034-1.896,3.719-2.569,5.663
			c-0.646,1.798-0.539,3.967-0.625,5.856c-0.054,1.172-0.165,2.368-0.546,3.484c-0.321,0.94-0.845,1.803-1.401,2.621
			c-0.828,1.227-1.932,2.545-2.352,3.973c-0.18,0.614-0.19,1.266-0.124,1.899c0.109,1.08,0.442,2.232,0.507,3.317
			c0.031,0.523-0.002,1.056-0.154,1.559c-0.197,0.656-0.553,1.257-0.934,1.822c-0.861,1.293-2.095,2.588-2.475,4.128
			c-0.217,0.899-0.144,1.841-0.028,2.749c0.213,1.55,0.537,3.242,0.398,4.806c-0.281,3.082-1.866,6.007-2.746,8.938
			c-0.212,0.723-0.397,1.472-0.412,2.229c-0.01,0.514,0.087,1.029,0.257,1.513c0.344,0.98,0.968,1.943,1.128,2.982
			c0.088,0.522,0.068,1.059,0.013,1.583c-0.173,1.543-0.686,3.26-0.921,4.793c-0.121,0.791-0.198,1.605-0.091,2.402
			c0.092,0.676,0.332,1.325,0.632,1.935c0.493,1.003,1.215,2.065,1.561,3.135c0.31,0.914,0.3,1.9,0.235,2.852l-0.152,1.818
			c-0.064,1.017-0.112,2.114,0.384,3.039c0.465,0.857,1.35,1.501,2.073,2.131c0.443,0.39,0.89,0.813,1.142,1.355
			c0.303,0.657,0.276,1.477,0.319,2.186c0.026,0.402,0.071,0.815,0.24,1.185c0.102,0.227,0.259,0.427,0.451,0.585
			c0.534,0.434,1.223,0.622,1.89,0.739c1.049,0.166,2.132,0.146,3.173-0.061c0.576,0.887,1.386,1.623,2.333,2.096
			c0.77,0.391,1.624,0.59,2.476,0.701c0.925,0.121,1.937,0.155,2.873,0.177c0.757,0.04,80.872,0.004,81.626,0.022
			c1.085-0.006,2.487,0.012,3.57-0.164c0.844-0.131,1.69-0.393,2.375-0.918c0.677-0.511,1.153-1.249,1.463-2.031
			c2.368,0.978,4.848,1.74,7.363,2.234c3.06,0.609,6.251,0.811,9.368,0.859c2.301-0.014,53.628,0.06,54.465-0.014
			c1.375-0.035,2.903-0.108,4.268-0.243c3.249-0.308,6.484-1.019,9.609-1.945c0.135,0.464,0.371,0.911,0.734,1.237
			c0.388,0.354,0.892,0.55,1.396,0.673c0.788,0.187,1.616,0.235,2.423,0.272c0.575,0.028,1.712,0.033,2.298,0.04
			C635.01,497.82,754.351,497.821,754.351,497.821z"/>
	</g>
</g>
</svg>
